<?xml version="1.0" encoding="UTF-8" standalone="no"?>
<!-- Created with Inkscape (http://www.inkscape.org/) -->

<svg
   xmlns:dc="http://purl.org/dc/elements/1.1/"
   xmlns:cc="http://creativecommons.org/ns#"
   xmlns:rdf="http://www.w3.org/1999/02/22-rdf-syntax-ns#"
   xmlns:svg="http://www.w3.org/2000/svg"
   xmlns="http://www.w3.org/2000/svg"
   xmlns:sodipodi="http://sodipodi.sourceforge.net/DTD/sodipodi-0.dtd"
   xmlns:inkscape="http://www.inkscape.org/namespaces/inkscape"
   version="1.0"
   width="113.51"
   height="178.13"
   id="svg2379"
   sodipodi:version="0.32"
   inkscape:version="0.48.2 r9819"
   sodipodi:docname="Monoclinic.svg"
   inkscape:output_extension="org.inkscape.output.svg.inkscape"
   sodipodi:modified="true">
  <metadata
     id="metadata3574">
    <rdf:RDF>
      <cc:Work
         rdf:about="">
        <dc:format>image/svg+xml</dc:format>
        <dc:type
           rdf:resource="http://purl.org/dc/dcmitype/StillImage" />
      </cc:Work>
    </rdf:RDF>
  </metadata>
  <sodipodi:namedview
     inkscape:window-height="995"
     inkscape:window-width="1280"
     inkscape:pageshadow="2"
     inkscape:pageopacity="0.0"
     guidetolerance="10.0"
     gridtolerance="10.0"
     objecttolerance="10.0"
     borderopacity="1.0"
     bordercolor="#666666"
     pagecolor="#ffffff"
     id="base"
     inkscape:zoom="2.7831077"
     inkscape:cx="48.01469"
     inkscape:cy="96.295242"
     inkscape:window-x="1265"
     inkscape:window-y="22"
     inkscape:current-layer="svg2379"
     showgrid="false"
     inkscape:window-maximized="0" />
  <defs
     id="defs2381">
    <inkscape:perspective
       sodipodi:type="inkscape:persp3d"
       inkscape:vp_x="0 : 89.065002 : 1"
       inkscape:vp_y="0 : 1000 : 0"
       inkscape:vp_z="113.51 : 89.065002 : 1"
       inkscape:persp3d-origin="56.755001 : 59.376668 : 1"
       id="perspective33" />
    <marker
       refX="0"
       refY="0"
       orient="auto"
       style="overflow:visible"
       id="Dot_m">
      <path
         d="M -2.5,-1 C -2.5,1.76 -4.74,4 -7.5,4 C -10.26,4 -12.5,1.76 -12.5,-1 C -12.5,-3.76 -10.26,-6 -7.5,-6 C -4.74,-6 -2.5,-3.76 -2.5,-1 z "
         transform="matrix(0.4,0,0,0.4,2.96,0.4)"
         style="fill-rule:evenodd;stroke:#000000;stroke-width:1pt;marker-start:none;marker-end:none"
         id="path3527" />
    </marker>
  </defs>
  <g
     id="g2425">
    <path
       id="path3625"
       style="fill:#000000;fill-rule:evenodd;stroke:none;stroke-width:0.7pt;marker-start:none;marker-end:none"
       d="M 25.639398,173.42033 C 24.605288,175.05227 22.441538,175.53747 20.809588,174.50336 C 19.177648,173.46925 18.692448,171.3055 19.726558,169.67355 C 20.760668,168.04161 22.924428,167.55641 24.556368,168.59052 C 26.188308,169.62463 26.673508,171.78839 25.639398,173.42033 z" />
    <path
       id="path3635"
       style="fill:#c0c0c0;fill-opacity:1;fill-rule:evenodd;stroke:none;stroke-width:0.7pt;marker-start:none;marker-end:none"
       d="M 82.050927,134.99334 C 83.273297,136.48948 83.051087,138.69581 81.554937,139.91817 C 80.058797,141.14053 77.852467,140.91833 76.630107,139.42218 C 75.407747,137.92603 75.629947,135.71971 77.126097,134.49735 C 78.622247,133.27499 80.828567,133.49719 82.050927,134.99334 z" />
    <path
       id="path3637"
       style="fill:#c0c0c0;fill-opacity:1;fill-rule:evenodd;stroke:none;stroke-width:1.75;stroke-linecap:butt;stroke-linejoin:miter;stroke-miterlimit:4;stroke-dasharray:none;stroke-opacity:1"
       d="M 95.93377,171.52188 L 95.96502,171.24063 L 95.84002,170.95938 L 79.621267,136.58438 L 79.371267,136.08438 L 78.840017,136.08438 L 6.9672391,136.08438 L 6.2484891,136.08438 L 6.0922391,136.80313 L 7.6859891,137.83438 L 78.277517,137.83438 L 94.152517,171.45938 L 95.93377,171.52188 z" />
    <path
       id="path3639"
       style="fill:none;fill-rule:evenodd;stroke:#c0c0c0;stroke-width:1.75;stroke-linecap:butt;stroke-linejoin:miter;stroke-miterlimit:4;stroke-dasharray:none;stroke-opacity:1"
       d="M 90.576327,52.937207 L 79.579247,136.49158" />
    <path
       id="text3655"
       style="font-size:21.60733986px;font-style:normal;font-weight:normal;fill:#008000;fill-opacity:1;stroke:none;stroke-width:1px;stroke-linecap:butt;stroke-linejoin:miter;stroke-opacity:1;font-family:Bitstream Vera Sans"
       d="M 49.003628,152.03823 C 48.131448,153.21989 47.104538,154.67234 45.922898,156.39557 C 45.747048,157.739 45.659128,158.68854 45.659128,159.24419 C 45.659128,159.70842 45.711878,160.04076 45.817388,160.24121 C 45.922888,160.44167 46.098728,160.5419 46.344908,160.5419 C 46.541848,160.5419 46.765158,160.45926 47.014868,160.29396 C 47.264548,160.12868 47.533588,159.87371 47.821978,159.52906 L 48.433908,160.09878 C 47.843068,160.73181 47.329608,161.16614 46.893538,161.40176 C 46.457438,161.63739 46.007288,161.7552 45.543078,161.7552 C 44.607598,161.7552 44.139858,161.07294 44.139868,159.70841 C 44.139858,159.40597 44.160958,159.07187 44.203168,158.70612 L 44.097668,158.70612 C 43.373198,159.7893 42.687418,160.56828 42.040328,161.04305 C 41.393228,161.51782 40.700408,161.7552 39.961888,161.7552 C 39.448428,161.7552 39.015858,161.6075 38.664178,161.31208 C 38.312498,161.01667 38.052248,160.62455 37.883448,160.13571 C 37.714638,159.64687 37.630228,159.11407 37.630238,158.53731 C 37.630228,157.2783 37.869378,156.08434 38.347668,154.95543 C 38.825948,153.82654 39.490628,152.9403 40.341698,152.29672 C 41.192768,151.65315 42.149338,151.33136 43.211428,151.33135 C 43.999188,151.33136 44.616388,151.57754 45.063028,152.06988 C 45.509658,152.56225 45.757598,153.28319 45.806838,154.23273 L 45.901798,154.22218 L 47.283908,151.50016 L 49.109128,151.50016 L 49.003628,152.03823 z M 44.414178,156.46942 C 44.533738,155.73793 44.593528,155.09084 44.593538,154.52814 C 44.593528,153.72631 44.475718,153.13197 44.240098,152.74511 C 44.004458,152.35827 43.636958,152.16485 43.137578,152.16484 C 42.490468,152.16485 41.889098,152.45322 41.333448,153.02997 C 40.777778,153.60674 40.332908,154.38747 39.998808,155.37218 C 39.664708,156.35689 39.497658,157.36622 39.497668,158.40016 C 39.497658,159.11056 39.603168,159.63808 39.814178,159.98273 C 40.025188,160.32738 40.341698,160.4997 40.763718,160.4997 C 41.368608,160.4997 41.991088,160.1445 42.631148,159.4341 C 43.271208,158.72371 43.865548,157.73548 44.414178,156.46942 L 44.414178,156.46942 z" />
    <path
       id="text3659"
       style="font-size:21.60733986px;font-style:normal;font-weight:normal;fill:#008000;fill-opacity:1;stroke:none;stroke-width:1px;stroke-linecap:butt;stroke-linejoin:miter;stroke-opacity:1;font-family:Bitstream Vera Sans"
       d="M 94.560358,135.61474 C 96.23436,136.20557 97.07136,137.30633 97.07137,138.91703 C 97.07136,139.747 96.88673,140.52422 96.51747,141.24868 C 96.1482,141.97315 95.60661,142.54815 94.8927,142.97368 C 94.178778,143.39922 93.357598,143.61198 92.429168,143.61198 C 91.831298,143.61198 91.305538,143.56451 90.851868,143.46955 C 90.398198,143.3746 89.928708,143.21107 89.443388,142.97896 L 88.314488,147.97987 L 86.594758,147.97987 L 89.717698,134.03217 C 89.999038,132.78019 90.378858,131.74273 90.857148,130.91978 C 91.335428,130.09686 91.933288,129.46207 92.650728,129.01542 C 93.368148,128.5688 94.212188,128.34549 95.18284,128.34547 C 96.26601,128.34549 97.10301,128.58639 97.69385,129.06818 C 98.28466,129.54999 98.58007,130.23402 98.58009,131.12024 C 98.58007,131.47897 98.52908,131.86758 98.4271,132.28607 C 98.3251,132.70458 98.12289,133.11605 97.82045,133.52047 C 97.518,133.92491 97.09774,134.29946 96.55967,134.64409 C 96.02159,134.98875 95.36219,135.28416 94.581458,135.53033 L 94.560358,135.61474 z M 92.798428,135.15052 C 93.558058,135.09426 94.243838,134.87621 94.85577,134.49639 C 95.46769,134.11658 95.94774,133.61895 96.29591,133.0035 C 96.64407,132.38807 96.81815,131.7146 96.81816,130.98308 C 96.81815,130.39931 96.6722,129.95267 96.38032,129.64318 C 96.08841,129.33371 95.65408,129.17897 95.07733,129.17896 C 94.184048,129.17897 93.438488,129.60978 92.840638,130.47139 C 92.242768,131.33302 91.753928,132.63952 91.374118,134.39088 L 89.949808,141.00602 C 89.914638,141.1678 89.897048,141.30495 89.897058,141.41749 C 89.897048,141.6074 89.941008,141.76917 90.028938,141.90281 C 90.116858,142.03645 90.246978,142.16833 90.419308,142.29845 C 90.591628,142.42858 90.814938,142.54111 91.089258,142.63607 C 91.363568,142.73102 91.711728,142.7785 92.133758,142.7785 C 92.703468,142.7785 93.222198,142.60266 93.689948,142.25098 C 94.157678,141.89929 94.525178,141.39991 94.79247,140.75281 C 95.05974,140.10572 95.19338,139.36719 95.19339,138.53721 C 95.19338,137.74242 94.97358,137.11994 94.533978,136.66978 C 94.094368,136.21964 93.466618,135.96291 92.650728,135.8996 L 92.798428,135.15052 z" />
    <path
       id="text3663"
       style="font-size:21.60733986px;font-style:normal;font-weight:normal;fill:#008000;fill-opacity:1;stroke:none;stroke-width:1px;stroke-linecap:butt;stroke-linejoin:miter;stroke-opacity:1;font-family:Bitstream Vera Sans"
       d="M 57.388805,65.788741 C 56.706525,66.611681 55.707755,67.965661 54.392473,69.850661 C 53.077173,71.735681 51.849803,73.606631 50.710363,75.463511 C 50.478243,76.926501 50.182833,78.305101 49.824123,79.599291 L 48.252103,79.599291 L 47.946133,79.103421 C 48.227483,77.999131 48.730383,76.782311 49.454853,75.452961 C 49.518153,74.123601 49.549803,72.766111 49.549803,71.380481 C 49.549803,70.205871 49.525183,69.295011 49.475953,68.647911 C 49.426713,68.000821 49.354623,67.513751 49.259673,67.186671 C 49.164713,66.859621 49.052173,66.634541 48.922053,66.511441 C 48.791933,66.388361 48.631913,66.326821 48.442013,66.326811 C 48.048123,66.326821 47.594453,66.611681 47.081003,67.181401 L 46.490173,66.590571 C 46.827793,66.288131 47.089793,66.059541 47.276183,65.904791 C 47.462573,65.750061 47.656003,65.612911 47.856463,65.493321 C 48.056913,65.373761 48.264413,65.280571 48.478933,65.213741 C 48.693463,65.146931 48.934363,65.113521 49.201643,65.113511 C 49.890933,65.113521 50.393843,65.377281 50.710363,65.904791 C 51.026863,66.432321 51.185123,67.300981 51.185133,68.510761 C 51.185123,69.931561 51.118303,71.471921 50.984673,73.131861 L 51.079623,73.131861 C 52.788793,70.262141 54.202553,67.645631 55.320913,65.282321 L 57.525955,65.282321 L 57.388805,65.788741 z" />
    <path
       sodipodi:nodetypes="cc"
       id="path3679"
       style="fill:none;fill-rule:evenodd;stroke:#008000;stroke-width:1px;stroke-linecap:butt;stroke-linejoin:miter;stroke-opacity:1"
       d="M 47.265309,88.446113 C 48.379371,83.273703 41.646133,74.621015 30.186179,76.763844" />
    <path
       id="path3681"
       style="fill:none;fill-rule:evenodd;stroke:#008000;stroke-width:1px;stroke-linecap:butt;stroke-linejoin:miter;stroke-opacity:1"
       d="M 25.845548,158.45444 C 32.052448,158.77274 41.601518,166.01412 40.169158,172.30059" />
    <path
       id="path3683"
       style="fill:none;fill-rule:evenodd;stroke:#008000;stroke-width:1px;stroke-linecap:butt;stroke-linejoin:miter;stroke-opacity:1"
       d="M 87.695948,154.15736 C 89.207888,151.61094 95.01691,149.7807 97.96121,150.81518" />
    <path
       id="path3601"
       style="fill:none;fill-rule:evenodd;stroke:#000000;stroke-width:1.75;stroke-linecap:butt;stroke-linejoin:miter;stroke-miterlimit:4;stroke-dasharray:none;stroke-opacity:1"
       d="M 35.057753,89.462397 L 22.742108,173.01677" />
    <path
       id="path3623"
       style="fill:#000000;fill-rule:evenodd;stroke:none;stroke-width:0.7pt;marker-start:none;marker-end:none"
       d="M 6.9219491,140.61277 C 5.0040291,140.84555 3.2585288,139.4779 3.0257388,137.55998 C 2.7929588,135.64205 4.1606088,133.89655 6.0785391,133.66377 C 7.9964591,133.43099 9.7419691,134.79864 9.9747491,136.71656 C 10.207528,138.63449 8.8398791,140.37999 6.9219491,140.61277 z" />
    <path
       id="path3599"
       style="fill:#000000;fill-opacity:1;fill-rule:evenodd;stroke:none;stroke-width:1.75;stroke-linecap:butt;stroke-linejoin:miter;stroke-miterlimit:4;stroke-dasharray:none;stroke-opacity:1"
       d="M 17.52216,54.439817 L 5.6381591,137.03357 L 5.6069091,137.31482 L 5.7319091,137.59607 L 21.950658,171.97107 L 22.200658,172.47107 L 22.731908,172.47107 L 94.604687,172.47107 L 95.32344,172.47107 L 95.47969,171.75232 L 107.36368,89.627317 L 105.64493,89.283567 L 93.885937,170.72107 L 23.294408,170.72107 L 7.4194091,137.09607 L 19.24091,54.783567 L 17.52216,54.439817 z" />
    <path
       id="path3627"
       style="fill:#000000;fill-rule:evenodd;stroke:none;stroke-width:0.7pt;marker-start:none;marker-end:none"
       d="M 97.27523,169.41428 C 98.4976,170.91042 98.27539,173.11675 96.77924,174.33911 C 95.2831,175.56147 93.076767,175.33927 91.854407,173.84312 C 90.632047,172.34697 90.854247,170.14065 92.350397,168.91829 C 93.846547,167.69593 96.05287,167.91813 97.27523,169.41428 z" />
    <path
       id="path2430"
       style="fill:#000000;fill-opacity:1;fill-rule:evenodd;stroke:none;stroke-width:1.75;stroke-linecap:butt;stroke-linejoin:miter;stroke-miterlimit:4;stroke-dasharray:none;stroke-opacity:1"
       d="M 16.99091,54.221067 L 17.58466,55.471067 L 34.30341,89.846067 L 34.55341,90.346067 L 35.08466,90.346067 L 106.95743,90.346067 L 108.36368,90.346067 L 107.76993,89.096067 L 91.519942,54.721067 L 91.301192,54.221067 L 90.738692,54.221067 L 18.39716,54.221067 L 16.99091,54.221067 z M 19.80341,55.971067 L 90.207442,55.971067 L 105.58243,88.596067 L 35.67841,88.596067 L 19.80341,55.971067 z" />
    <path
       id="path3609"
       style="fill:#000000;fill-opacity:1;fill-rule:evenodd;stroke:none;stroke-width:0.7pt;marker-start:none;marker-end:none"
       d="M 93.636482,56.921657 C 92.602372,58.553597 90.438622,59.038797 88.806669,58.004687 C 87.174729,56.970577 86.689529,54.806827 87.723639,53.174877 C 88.757749,51.542937 90.921512,51.057737 92.553452,52.091847 C 94.185392,53.125957 94.670592,55.289717 93.636482,56.921657 z" />
    <path
       id="path3611"
       style="fill:#000000;fill-opacity:1;fill-rule:evenodd;stroke:none;stroke-width:0.7pt;marker-start:none;marker-end:none"
       d="M 105.13668,92.359687 C 103.50474,91.325577 103.01954,89.161827 104.05365,87.529877 C 105.08776,85.897937 107.25151,85.412737 108.88346,86.446847 C 110.5154,87.480957 111.0006,89.644717 109.96649,91.276657 C 108.93238,92.908597 106.76862,93.393797 105.13668,92.359687 z" />
    <path
       id="path3613"
       style="fill:#000000;fill-opacity:1;fill-rule:evenodd;stroke:none;stroke-width:0.7pt;marker-start:none;marker-end:none"
       d="M 32.18807,87.642867 C 33.21294,86.005107 35.37392,85.507697 37.01168,86.532577 C 38.64944,87.557457 39.14685,89.718437 38.12197,91.356197 C 37.09709,92.993947 34.93611,93.491357 33.29836,92.466487 C 31.6606,91.441607 31.16319,89.280627 32.18807,87.642867 z" />
    <path
       id="path3615"
       style="fill:#000000;fill-opacity:1;fill-rule:evenodd;stroke:none;stroke-width:0.7pt;marker-start:none;marker-end:none"
       d="M 20.20434,52.178127 C 21.8421,53.202997 22.33951,55.363977 21.31463,57.001737 C 20.28975,58.639497 18.12877,59.136907 16.49101,58.112027 C 14.85326,57.087147 14.35585,54.926167 15.38072,53.288417 C 16.4056,51.650657 18.56658,51.153247 20.20434,52.178127 z" />
  </g>
  <path
     style="font-size:21.60733986px;font-style:normal;font-weight:normal;fill:#000000;fill-opacity:1;stroke:none;stroke-width:1px;stroke-linecap:butt;stroke-linejoin:miter;stroke-opacity:1;font-family:Bitstream Vera Sans"
     d="M 51.307064,36.961294 L 64.305224,36.961294 L 64.305224,38.364514 L 51.307064,38.364514 L 51.307064,36.961294 z "
     id="path3616" />
  <path
     style="font-size:21.60733986px;font-style:normal;font-weight:normal;fill:#000000;fill-opacity:1;stroke:none;stroke-width:1px;stroke-linecap:butt;stroke-linejoin:miter;stroke-opacity:1;font-family:Bitstream Vera Sans"
     d="M 64.305224,33.986074 L 51.307064,33.986074 L 51.307064,32.582855 L 64.305224,32.582855 L 64.305224,33.986074 z "
     id="path3614" />
  <g
     transform="translate(1.2348545,0.5061134)"
     id="g3077"
     style="opacity:1">
    <path
       inkscape:connector-curvature="0"
       style="font-size:21.60733986000000000px;font-style:normal;font-weight:normal;fill:#000000;fill-opacity:1;stroke:none;font-family:Bitstream Vera Sans"
       d="m 41.140697,14.240355 0,-1.40322 5.33853,0 1.26606,-2.9752198 -6.60459,0 0,-1.40322 7.20596,0 1.44541,-3.38669 1.27661,0 -1.44541,3.38669 4.51559,0 0,1.40322 -5.11697,0 -1.26605,2.9752198 6.38302,0 0,1.40322 -6.9844,0 -1.58257,3.71376 -1.2766,0 1.58256,-3.71376 -4.73715,0 z"
       id="path3661-1" />
    <path
       sodipodi:nodetypes="ccsccccccscccccccscccccsscccccccscssccccsssccccssccccsccccccsscccccscccccssccccccscccscccccc"
       inkscape:connector-curvature="0"
       d="m 63.88915,17.189798 0,-0.51697 c 0.98471,0 1.83754,-0.21804 2.558486,-0.65413 0.72094,-0.43608 1.30122,-1.08142 1.74083,-1.93601 0.43959,-0.85458 0.73324,-1.97469 0.88096,-3.36032 l -0.10551,-0.0422 c -0.59083,0.42202 -1.17286,0.7315 -1.7461,0.92844 -0.57324,0.19695 -1.19396,0.29542 -1.862146,0.29541 -0.79481,10e-6 -1.4718,-0.17408 -2.03097,-0.52225 -0.55917,-0.34816 -0.97943,-0.83699 -1.26078,-1.4665102 -0.28134,-0.629499 -0.42202,-1.366279 -0.42201,-2.210319 -1e-5,-0.63302 0.1055,-1.23264 0.31651,-1.79886 0.21101,-0.56619 0.524,-1.06206 0.93899,-1.48761 0.41498,-0.42552 0.93371,-0.76314 1.55619,-1.01284 0.62248,-0.24968 1.3487,-0.37453 2.178666,-0.37455 1.47706,2e-5 2.60244,0.50996 3.37615,1.52982 0.77369,1.01989 1.16054,2.4864 1.16055,4.39954 -1e-5,1.7513892 -0.28487,3.2688892 -0.85459,4.5525292 -0.56973,1.28364 -1.36805,2.28241 -2.39495,2.99633 -1.02692,0.71391 -2.226146,1.13417 -3.597706,1.26078 z m 2.194496,-6.39358 c 0.26727,10e-6 0.52224,-0.02285 0.76491,-0.06858 0.24265,-0.04571 0.48004,-0.11253 0.71215,-0.20045 0.23211,-0.08792 0.45894,-0.20046 0.68051,-0.33762 0.22155,-0.13715 0.42025,-0.2831002 0.5961,-0.4378402 0.06329,-0.05626 0.11956,-0.13012 0.16881,-0.22156 0.04922,-0.091429 0.08791,-0.210999 0.11605,-0.358719 0.02813,-0.1477 0.04219,-0.37981 0.0422,-0.69633 -1e-5,-0.9636 -0.09672,-1.78829 -0.29014,-2.47408 -0.19343,-0.68577 -0.48884,-1.20274 -0.88623,-1.55092 -0.39741,-0.34815 -0.88801,-0.52223 -1.47179,-0.52225 -0.52753,2e-5 -0.974166,0.09145 -1.339906,0.27432 -0.36575,0.18288 -0.66293,0.43434 -0.89151,0.75435 -0.2286,0.32005 -0.39565,0.69635 -0.50115,1.1289 -0.10551,0.43258 -0.15826,0.90208 -0.15826,1.40849 0,1.04802 0.21452,1.8604 0.64358,2.437149 0.42905,0.5767702 1.03394,0.8651502 1.814676,0.8651402 z m 12.354594,6.97386 c -1.51927,0 -2.64993,-0.59786 -3.39198,-1.79358 -0.74205,-1.19572 -1.11307,-3.0104 -1.11307,-5.44404 0,-1.2941792 0.11429,-2.4125292 0.34289,-3.3550392 0.22859,-0.9425 0.54862,-1.72148 0.96009,-2.33693 0.41147,-0.61543 0.90558,-1.07086 1.48234,-1.36629 0.57675,-0.29539 1.20626,-0.4431 1.88853,-0.44312 1.54036,2e-5 2.68684,0.59436 3.43945,1.78303 0.75259,1.1887 1.12889,2.98579 1.1289,5.3912892 -10e-6,2.48991 -0.40268,4.37317 -1.20803,5.64977 -0.80536,1.2766 -1.98173,1.91491 -3.52912,1.91491 z m -2.44771,-7.55413 c 0,2.29297 0.21276,3.97577 0.6383,5.04839 0.42553,1.07263 1.08494,1.60895 1.97821,1.60895 0.85107,0 1.48233,-0.50467 1.89381,-1.51399 0.41146,-1.00933 0.61719,-2.57255 0.6172,-4.68968 -1e-5,-1.6177292 -0.10551,-2.9277492 -0.31651,-3.9300492 -0.21102,-1.00228 -0.50467,-1.72147 -0.88096,-2.15757 -0.37631,-0.43607 -0.83174,-0.65411 -1.36629,-0.65413 -0.48533,2e-5 -0.89152,0.14421 -1.21858,0.43257 -0.32707,0.28839 -0.59083,0.70338 -0.79128,1.24496 -0.20046,0.5416 -0.3429,1.201 -0.4273,1.97821 -0.0844,0.77722 -0.1266,1.65467 -0.1266,2.6323392 z M 88.52447,9.3402588 c -0.61193,10e-6 -1.15176,-0.13715 -1.61949,-0.41147 -0.46774,-0.2743 -0.82821,-0.65236 -1.08142,-1.13417 -0.25322,-0.4818 -0.37982,-1.02515 -0.37982,-1.63005 0,-0.59785 0.1354,-1.13768 0.40619,-1.61949 0.2708,-0.4818 0.64885,-0.85458 1.13418,-1.11835 0.48532,-0.26375 1.03394,-0.39563 1.64587,-0.39565 0.60489,2e-5 1.14472,0.13366 1.61949,0.40092 0.47477,0.26729 0.84403,0.64008 1.1078,1.11835 0.26376,0.4783 0.39564,1.01989 0.39564,1.62477 0,0.59787 -0.13892,1.1377 -0.41674,1.6195 -0.27783,0.48181 -0.66293,0.85987 -1.15527,1.13417 -0.49236,0.27432 -1.0445,0.41148 -1.65643,0.41147 z m 0.06331,-5.26468 c -0.39389,1e-5 -0.74557,0.08969 -1.05505,0.26904 -0.30948,0.17937 -0.54863,0.4273 -0.71743,0.7438 -0.16881,0.31653 -0.25321,0.67876 -0.25321,1.0867 0,0.40796 0.08264,0.77195 0.24793,1.09197 0.16529,0.32004 0.40444,0.56974 0.71744,0.74909 0.31299,0.17936 0.66643,0.26904 1.06032,0.26903 0.40091,1e-5 0.75787,-0.08967 1.07087,-0.26903 0.31299,-0.17935 0.55389,-0.42905 0.7227,-0.74909 0.16881,-0.32002 0.25321,-0.68401 0.25322,-1.09197 -1e-5,-0.40794 -0.08441,-0.77017 -0.25322,-1.0867 -0.16881,-0.3165 -0.40971,-0.56443 -0.7227,-0.7438 -0.313,-0.17935 -0.66996,-0.26903 -1.07087,-0.26904 z"
       style="font-size:21.60733986000000000px;font-style:normal;font-weight:normal;fill:#000000;fill-opacity:1;stroke:none;font-family:Bitstream Vera Sans"
       id="path3612-7" />
    <path
       sodipodi:nodetypes="ccssscccccsscccccscccsscccsccssccssscccc"
       d="m 27.25276,9.7648646 c 1.673955,0.5908304 2.510933,1.6915904 2.510943,3.3022904 -10e-6,0.82997 -0.184635,1.60719 -0.553886,2.33165 -0.36926,0.72447 -0.910835,1.29947 -1.624726,1.725 -0.713901,0.42554 -1.535059,0.63831 -2.463465,0.63831 -0.597854,0 -1.123599,-0.04748 -1.577246,-0.14244 -0.453668,-0.09495 -0.923146,-0.25848 -1.408453,-0.49059 l -1.12887,5.00092 -1.719674,0 3.122847,-13.9477104 c 0.281332,-1.25198 0.661142,-2.28944 1.139419,-3.11239 0.478268,-0.82292 1.076111,-1.4577 1.793532,-1.90435 0.7174,-0.44663 1.561418,-0.66994 2.532042,-0.66996 1.083141,2e-5 1.920119,0.24092 2.510943,0.72271 0.590794,0.48182 0.886197,1.16584 0.886216,2.05206 -1.9e-5,0.35873 -0.05101,0.74734 -0.152985,1.16583 -0.101988,0.41851 -0.304202,0.82998 -0.606634,1.2344 -0.302442,0.40445 -0.722691,0.77899 -1.260747,1.12363 -0.538065,0.34465 -1.197448,0.64007 -1.978157,0.88623 z m -1.761873,-0.46422 c 0.759599,-0.05626 1.445361,-0.27431 2.057275,-0.65413 0.611903,-0.37981 1.091941,-0.87744 1.440101,-1.49289 0.348151,-0.61543 0.522226,-1.2889 0.522236,-2.02041 -10e-6,-0.58378 -0.145956,-1.03042 -0.437828,-1.33991 -0.291902,-0.30947 -0.72622,-0.46421 -1.302955,-0.46422 -0.893256,1e-5 -1.638796,0.43082 -2.23663,1.29243 -0.597855,0.86163 -1.086682,2.16813 -1.46648,3.91949 l -1.424272,6.6151404 c -0.03517,0.16178 -0.05275,0.29893 -0.05275,0.41147 0,0.18991 0.04396,0.35168 0.131876,0.48532 0.08792,0.13364 0.218035,0.26552 0.39036,0.39564 0.172315,0.13013 0.39562,0.24267 0.669932,0.33762 0.274303,0.09495 0.622453,0.14243 1.044471,0.14243 0.569695,0 1.088421,-0.17584 1.556149,-0.52752 0.467717,-0.35168 0.835218,-0.85107 1.10249,-1.49817 0.267263,-0.64709 0.4009,-1.38562 0.40091,-2.21559 -10e-6,-0.7948 -0.219804,-1.41728 -0.659383,-1.86744 -0.439598,-0.45014 -1.067341,-0.70687 -1.883209,-0.77018 z"
       style="font-size:21.60733986000000000px;font-style:normal;font-weight:normal;fill:#000000;fill-opacity:1;stroke:none;font-family:Bitstream Vera Sans"
       id="path3648-1"
       inkscape:connector-curvature="0" />
  </g>
  <g
     transform="translate(-0.5197405,-0.140146)"
     id="g3071">
    <path
       sodipodi:nodetypes="ccssccccscccscccccccccscccccccccccccccsccccccscccccccscccccsscccccccscssccccsssccccssccccsccccccsscccccscccccssccccccscccscccccc"
       inkscape:connector-curvature="0"
       d="m 27.748018,39.327298 c 0.09847,0.49236 0.1477,0.97768 0.14771,1.45597 -10e-6,0.49235 -0.08441,0.9425 -0.25322,1.35045 -0.16881,0.40795 -0.43784,0.81415 -0.80711,1.21858 -0.36926,0.40443 -0.87744,0.84931 -1.52454,1.33464 l -0.56972,-0.64358 c 0.35871,-0.33762 0.61896,-0.64182 0.78073,-0.91262 0.16177,-0.27079 0.27783,-0.57852 0.34817,-0.92316 0.07033,-0.34465 0.1055,-0.77722 0.1055,-1.29771 0,-0.53455 -0.02462,-1.06208 -0.07385,-1.58257 z m 16.99679,-7.13211 c -0.68227,0.82295 -1.68105,2.17692 -2.99633,4.06193 -1.3153,1.88502 -2.54267,3.75596 -3.68211,5.61284 -0.23212,1.463 -0.52753,2.84159 -0.88624,4.13578 l -1.57202,0 -0.30596,-0.49587 c 0.28134,-1.10428 0.78425,-2.3211 1.50871,-3.65046 0.0633,-1.32935 0.09495,-2.68685 0.09496,-4.07247 -10e-6,-1.17462 -0.02462,-2.08547 -0.07386,-2.73257 -0.04923,-0.64709 -0.12133,-1.13417 -0.21628,-1.46124 -0.09496,-0.32706 -0.20749,-0.55213 -0.33761,-0.67523 -0.13013,-0.12308 -0.29014,-0.18463 -0.48005,-0.18463 -0.39389,0 -0.84755,0.28487 -1.36101,0.85458 l -0.59082,-0.59082 c 0.33761,-0.30244 0.59961,-0.53103 0.786,-0.68578 0.18639,-0.15473 0.37982,-0.29189 0.58028,-0.41147 0.20046,-0.11956 0.40795,-0.21276 0.62248,-0.27959 0.21452,-0.06681 0.45542,-0.10022 0.7227,-0.10023 0.6893,10e-6 1.1922,0.26377 1.50872,0.79129 0.31651,0.52753 0.47476,1.39618 0.47477,2.60596 -10e-6,1.4208 -0.06683,2.96117 -0.20046,4.6211 l 0.09495,0 c 1.70917,-2.86972 3.12293,-5.48623 4.24129,-7.84954 l 2.20505,0 z m 29.29862,9.16835 0,-0.51697 c 0.98471,0 1.83754,-0.21804 2.558486,-0.65413 0.72094,-0.43608 1.30122,-1.08142 1.74083,-1.93601 0.43959,-0.85458 0.73324,-1.97469 0.88096,-3.36032 l -0.10551,-0.0422 c -0.59083,0.42202 -1.17286,0.7315 -1.7461,0.92844 -0.57324,0.19695 -1.19396,0.29542 -1.862146,0.29541 -0.79481,10e-6 -1.4718,-0.17408 -2.03097,-0.52225 -0.55917,-0.34816 -0.97943,-0.83699 -1.26078,-1.46651 -0.28134,-0.6295 -0.42202,-1.36628 -0.42201,-2.21032 -1e-5,-0.63302 0.1055,-1.23264 0.31651,-1.79886 0.21101,-0.56619 0.524,-1.06206 0.93899,-1.48761 0.41498,-0.42552 0.93371,-0.76314 1.55619,-1.01284 0.62248,-0.24968 1.3487,-0.37453 2.178666,-0.37455 1.47706,2e-5 2.60244,0.50996 3.37615,1.52982 0.77369,1.01989 1.16054,2.4864 1.16055,4.39954 -1e-5,1.75139 -0.28487,3.26889 -0.85459,4.55253 -0.56973,1.28364 -1.36805,2.28241 -2.39495,2.99633 -1.02692,0.71391 -2.226146,1.13417 -3.597706,1.26078 z m 2.194496,-6.39358 c 0.26727,1e-5 0.52224,-0.02285 0.76491,-0.06858 0.24265,-0.04571 0.48004,-0.11253 0.71215,-0.20045 0.23211,-0.08792 0.45894,-0.20046 0.68051,-0.33762 0.22155,-0.13715 0.42025,-0.2831 0.5961,-0.43784 0.06329,-0.05626 0.11956,-0.13012 0.16881,-0.22156 0.04922,-0.09143 0.08791,-0.211 0.11605,-0.35872 0.02813,-0.1477 0.04219,-0.37981 0.0422,-0.69633 -10e-6,-0.9636 -0.09672,-1.78829 -0.29014,-2.47408 -0.19343,-0.68577 -0.48884,-1.20274 -0.88623,-1.55092 -0.39741,-0.34815 -0.88801,-0.52223 -1.47179,-0.52225 -0.52753,2e-5 -0.974166,0.09145 -1.339906,0.27432 -0.36575,0.18288 -0.66293,0.43434 -0.89151,0.75435 -0.2286,0.32005 -0.39565,0.69635 -0.50115,1.1289 -0.10551,0.43258 -0.15826,0.90208 -0.15826,1.40849 0,1.04802 0.21452,1.8604 0.64358,2.43715 0.42905,0.57677 1.03394,0.86515 1.814676,0.86514 z m 12.354594,6.97386 c -1.51927,0 -2.64993,-0.59786 -3.39198,-1.79358 -0.74205,-1.19572 -1.11307,-3.0104 -1.11307,-5.44404 0,-1.29418 0.11429,-2.41253 0.34289,-3.35504 0.22859,-0.9425 0.54862,-1.72148 0.96009,-2.33693 0.41147,-0.61543 0.90558,-1.07086 1.48234,-1.36629 0.57675,-0.29539 1.20626,-0.4431 1.88853,-0.44312 1.54036,2e-5 2.68684,0.59436 3.43945,1.78303 0.752587,1.1887 1.128887,2.98579 1.128897,5.39129 -1e-5,2.48991 -0.40268,4.37317 -1.208027,5.64977 -0.80536,1.2766 -1.98173,1.91491 -3.52912,1.91491 z m -2.44771,-7.55413 c 0,2.29297 0.21276,3.97577 0.6383,5.04839 0.42553,1.07263 1.08494,1.60895 1.97821,1.60895 0.85107,0 1.48233,-0.50467 1.89381,-1.51399 0.41146,-1.00933 0.61719,-2.57255 0.6172,-4.68968 -1e-5,-1.61773 -0.10551,-2.92775 -0.31651,-3.93005 -0.21102,-1.00228 -0.50467,-1.72147 -0.88096,-2.15757 -0.37631,-0.43607 -0.83174,-0.65411 -1.36629,-0.65413 -0.48533,2e-5 -0.89152,0.14421 -1.21858,0.43257 -0.32707,0.28839 -0.59083,0.70338 -0.79128,1.24496 -0.20046,0.5416 -0.3429,1.201 -0.4273,1.97821 -0.0844,0.77722 -0.1266,1.65467 -0.1266,2.63234 z m 12.533937,-0.87569 c -0.61193,10e-6 -1.15176,-0.13715 -1.61949,-0.41147 -0.46774,-0.2743 -0.82821,-0.65236 -1.08142,-1.13417 -0.25322,-0.4818 -0.37982,-1.02515 -0.37982,-1.63005 0,-0.59785 0.1354,-1.13768 0.40619,-1.61949 0.2708,-0.4818 0.64885,-0.85458 1.13418,-1.11835 0.48532,-0.26375 1.03394,-0.39563 1.64587,-0.39565 0.60489,2e-5 1.14472,0.13366 1.619485,0.40092 0.47477,0.26729 0.84403,0.64008 1.1078,1.11835 0.26376,0.4783 0.39564,1.01989 0.39564,1.62477 0,0.59787 -0.13892,1.1377 -0.41674,1.6195 -0.27783,0.48181 -0.66293,0.85987 -1.15527,1.13417 -0.492355,0.27432 -1.044495,0.41148 -1.656425,0.41147 z m 0.06331,-5.26468 c -0.39389,10e-6 -0.74557,0.08969 -1.05505,0.26904 -0.30948,0.17937 -0.54863,0.4273 -0.71743,0.7438 -0.16881,0.31653 -0.25321,0.67876 -0.25321,1.0867 0,0.40796 0.08264,0.77195 0.24793,1.09197 0.16529,0.32004 0.40444,0.56974 0.71744,0.74909 0.31299,0.17936 0.66643,0.26904 1.06032,0.26903 0.40091,1e-5 0.75787,-0.08967 1.07087,-0.26903 0.312985,-0.17935 0.553885,-0.42905 0.722695,-0.74909 0.16881,-0.32002 0.25321,-0.68401 0.25322,-1.09197 -10e-6,-0.40794 -0.0844,-0.77017 -0.25322,-1.0867 -0.16881,-0.3165 -0.40971,-0.56443 -0.722695,-0.7438 -0.313,-0.17935 -0.66996,-0.26903 -1.07087,-0.26904 z"
       style="font-size:21.60733986px;font-style:normal;font-weight:normal;fill:#000000;fill-opacity:1;stroke:none;font-family:Bitstream Vera Sans"
       id="path3648-4" />
    <path
       inkscape:connector-curvature="0"
       id="path3616-0"
       d="m 51.287466,36.990665 12.99816,0 0,1.40322 -12.99816,0 0,-1.40322 z"
       style="font-size:21.60733986px;font-style:normal;font-weight:normal;fill:#000000;fill-opacity:1;stroke:none;font-family:Bitstream Vera Sans" />
    <path
       inkscape:connector-curvature="0"
       id="path3614-9"
       d="m 64.285626,34.015445 -12.99816,0 0,-1.403219 12.99816,0 0,1.403219 z"
       style="font-size:21.60733986px;font-style:normal;font-weight:normal;fill:#000000;fill-opacity:1;stroke:none;font-family:Bitstream Vera Sans" />
    <path
       sodipodi:nodetypes="ccccsccccscccssscsscccccccccccccssscsscc"
       d="m 24.015693,32.233025 c -0.87219,1.18166 -1.8991,2.63411 -3.08074,4.35734 -0.17585,1.34343 -0.26377,2.29297 -0.26376,2.84863 -10e-6,0.46422 0.0527,0.79656 0.15826,0.99702 0.10549,0.20045 0.28133,0.30068 0.52752,0.30068 0.19693,0 0.42025,-0.08264 0.66996,-0.24793 0.24968,-0.16529 0.51872,-0.42026 0.80711,-0.76491 l 0.61192,0.56972 c -0.59083,0.63303 -1.10429,1.06736 -1.54036,1.30299 -0.4361,0.23562 -0.88625,0.35344 -1.35046,0.35344 -0.93549,0 -1.40322,-0.68227 -1.40321,-2.04679 -10e-6,-0.30245 0.0211,-0.63654 0.0633,-1.0023 l -0.10551,0 c -0.72447,1.08319 -1.41025,1.86216 -2.057337,2.33693 -0.6471,0.47477 -1.33991,0.71216 -2.07844,0.71216 -0.51345,0 -0.94602,-0.14771 -1.297699,-0.44312 -0.35169,-0.29542 -0.61193,-0.68754 -0.78074,-1.17638 -0.1688,-0.48884 -0.25321,-1.02163 -0.25321,-1.59839 0,-1.25902 0.23914,-2.45298 0.71743,-3.58188 0.47829,-1.128901 1.142969,-2.01513 1.994039,-2.65872 0.85107,-0.64357 1.80764,-0.96536 2.869727,-0.96537 0.78776,10e-6 1.40496,0.24619 1.8516,0.73853 0.44663,0.49237 0.69456,1.21332 0.74381,2.16285 l 0.0949,-0.01055 1.38211,-2.72202 1.82523,0 -0.1055,0.53807 z m -4.58945,4.4312 c 0.11956,-0.7315 0.17935,-1.37859 0.17936,-1.94129 -10e-6,-0.801831 -0.11783,-1.39617 -0.35344,-1.78303 -0.23564,-0.38684 -0.60315,-0.58026 -1.10253,-0.58027 -0.6471,1e-5 -1.248467,0.28839 -1.804127,0.86514 -0.55566,0.576759 -1.00054,1.3575 -1.33463,2.3422 -0.3341,0.98471 -0.50115,1.99404 -0.50115,3.02798 0,0.7104 0.10551,1.23792 0.31652,1.58257 0.211,0.34465 0.52752,0.51697 0.94954,0.51697 0.60489,0 1.22736,-0.3552 1.867427,-1.0656 0.64005,-0.71039 1.2344,-1.69862 1.78303,-2.96467 z"
       style="font-size:21.60733986px;font-style:normal;font-weight:normal;fill:#000000;fill-opacity:1;stroke:none;font-family:Bitstream Vera Sans"
       id="path3612-7-4"
       inkscape:connector-curvature="0" />
  </g>
</svg>
