<?xml version="1.0" encoding="UTF-8" standalone="no"?>
<!-- Created with Inkscape (http://www.inkscape.org/) -->
<svg
   xmlns:dc="http://purl.org/dc/elements/1.1/"
   xmlns:cc="http://creativecommons.org/ns#"
   xmlns:rdf="http://www.w3.org/1999/02/22-rdf-syntax-ns#"
   xmlns:svg="http://www.w3.org/2000/svg"
   xmlns="http://www.w3.org/2000/svg"
   xmlns:sodipodi="http://sodipodi.sourceforge.net/DTD/sodipodi-0.dtd"
   xmlns:inkscape="http://www.inkscape.org/namespaces/inkscape"
   version="1.0"
   width="138.73"
   height="165.7"
   id="svg2379"
   sodipodi:version="0.32"
   inkscape:version="0.46"
   sodipodi:docname="Rhombohedral.svg"
   inkscape:output_extension="org.inkscape.output.svg.inkscape">
  <metadata
     id="metadata2413">
    <rdf:RDF>
      <cc:Work
         rdf:about="">
        <dc:format>image/svg+xml</dc:format>
        <dc:type
           rdf:resource="http://purl.org/dc/dcmitype/StillImage" />
      </cc:Work>
    </rdf:RDF>
  </metadata>
  <sodipodi:namedview
     inkscape:window-height="945"
     inkscape:window-width="1280"
     inkscape:pageshadow="2"
     inkscape:pageopacity="0.0"
     guidetolerance="10.0"
     gridtolerance="10.0"
     objecttolerance="10.0"
     borderopacity="1.0"
     bordercolor="#666666"
     pagecolor="#ffffff"
     id="base"
     showgrid="false"
     inkscape:zoom="2.9812915"
     inkscape:cx="69.364998"
     inkscape:cy="82.849998"
     inkscape:window-x="-4"
     inkscape:window-y="-4"
     inkscape:current-layer="svg2379" />
  <defs
     id="defs2381">
    <inkscape:perspective
       sodipodi:type="inkscape:persp3d"
       inkscape:vp_x="0 : 82.849998 : 1"
       inkscape:vp_y="0 : 1000 : 0"
       inkscape:vp_z="138.73 : 82.849998 : 1"
       inkscape:persp3d-origin="69.364998 : 55.233332 : 1"
       id="perspective2415" />
    <marker
       refX="0"
       refY="0"
       orient="auto"
       style="overflow: visible;"
       id="Dot_m">
      <path
         d="M -2.5,-1 C -2.5,1.76 -4.74,4 -7.5,4 C -10.26,4 -12.5,1.76 -12.5,-1 C -12.5,-3.76 -10.26,-6 -7.5,-6 C -4.74,-6 -2.5,-3.76 -2.5,-1 z "
         transform="matrix(0.4, 0, 0, 0.4, 2.96, 0.4)"
         style="fill-rule: evenodd; stroke: rgb(0, 0, 0); stroke-width: 1pt; marker-start: none; marker-end: none;"
         id="path3527" />
    </marker>
  </defs>
  <text
     xml:space="preserve"
     style="font-size:20px;font-style:normal;font-weight:normal;fill:#000000;fill-opacity:1;stroke:none;stroke-width:1px;stroke-linecap:butt;stroke-linejoin:miter;stroke-opacity:1;font-family:Bitstream Vera Sans"
     x="29.852833"
     y="23.815182"
     id="text2417"><tspan
       sodipodi:role="line"
       id="tspan2419"
       x="29.852833"
       y="23.815182" /></text>
  <text
     xml:space="preserve"
     style="font-size:16;font-style:normal;font-weight:normal;fill:#000000;fill-opacity:1;stroke:none;stroke-width:1px;stroke-linecap:butt;stroke-linejoin:miter;stroke-opacity:1;font-family:Bitstream Vera Sans"
     x="26.834007"
     y="19.454657"
     id="text2421"><tspan
       sodipodi:role="line"
       id="tspan2423"
       x="26.834007"
       y="19.454657" /></text>
  <text
     xml:space="preserve"
     style="font-size:20px;font-style:normal;font-weight:normal;fill:#000000;fill-opacity:1;stroke:none;stroke-width:1px;stroke-linecap:butt;stroke-linejoin:miter;stroke-opacity:1;font-family:Bitstream Vera Sans"
     x="29.181984"
     y="23.144333"
     id="text2425"><tspan
       sodipodi:role="line"
       id="tspan2427"
       x="29.181984"
       y="23.144333" /></text>
  <text
     xml:space="preserve"
     style="font-size:14;font-style:normal;font-weight:normal;fill:#000000;fill-opacity:1;stroke:none;stroke-width:1px;stroke-linecap:butt;stroke-linejoin:miter;stroke-opacity:1;font-family:Bitstream Vera Sans"
     x="25.492308"
     y="21.131781"
     id="text2429"><tspan
       sodipodi:role="line"
       id="tspan2431"
       x="25.492308"
       y="21.131781" /></text>
  <text
     xml:space="preserve"
     style="font-size:14px;font-style:normal;font-weight:normal;fill:#000000;fill-opacity:1;stroke:none;stroke-width:1px;stroke-linecap:butt;stroke-linejoin:miter;stroke-opacity:1;font-family:Bitstream Vera Sans"
     x="27.504858"
     y="21.802631"
     id="text2433"><tspan
       sodipodi:role="line"
       id="tspan2435"
       x="27.504858"
       y="21.802631" /></text>
  <text
     xml:space="preserve"
     style="font-size:14px;font-style:normal;font-weight:normal;fill:#000000;fill-opacity:1;stroke:none;stroke-width:1px;stroke-linecap:butt;stroke-linejoin:miter;stroke-opacity:1;font-family:Bitstream Vera Sans"
     x="50.313763"
     y="16.100405"
     id="text2441"><tspan
       sodipodi:role="line"
       id="tspan2443"
       x="50.313763"
       y="16.100405" /></text>
  <text
     xml:space="preserve"
     style="font-size:14px;font-style:normal;font-weight:normal;fill:#000000;fill-opacity:1;stroke:none;stroke-width:1px;stroke-linecap:butt;stroke-linejoin:miter;stroke-opacity:1;font-family:Bitstream Vera Sans"
     x="50.649189"
     y="18.44838"
     id="text2445"><tspan
       sodipodi:role="line"
       id="tspan2447"
       x="50.649189"
       y="18.44838" /></text>
  <g
     id="g2470">
    <path
       id="path3625"
       style="fill:#000000;fill-rule:evenodd;stroke:none;stroke-width:0.7pt;marker-start:none;marker-end:none"
       d="M 29.44295,149.77138 C 28.40884,151.40332 26.24509,151.88852 24.61314,150.85441 C 22.9812,149.8203 22.496,147.65655 23.53011,146.0246 C 24.56422,144.39266 26.72798,143.90746 28.35992,144.94157 C 29.99186,145.97568 30.47706,148.13944 29.44295,149.77138 z" />
    <path
       id="path3635"
       style="fill:#c0c0c0;fill-opacity:1;fill-rule:evenodd;stroke:none;stroke-width:0.7pt;marker-start:none;marker-end:none"
       d="M 99.9192,111.34439 C 101.14157,112.84053 100.91936,115.04686 99.42321,116.26922 C 97.92707,117.49158 95.72074,117.26938 94.49838,115.77323 C 93.27602,114.27708 93.49822,112.07076 94.99437,110.8484 C 96.49052,109.62604 98.69684,109.84824 99.9192,111.34439 z" />
    <path
       id="path3637"
       style="fill:#c0c0c0;fill-opacity:1;fill-rule:evenodd;stroke:none;stroke-width:1.75;stroke-linecap:butt;stroke-linejoin:miter;stroke-miterlimit:4;stroke-dasharray:none;stroke-opacity:1"
       d="M 113.80204,147.87293 L 113.83329,147.59168 L 113.70829,147.31043 L 97.48954,112.93543 L 97.23954,112.43543 L 96.70829,112.43543 L 10.77079,112.43543 L 10.05204,112.43543 L 9.89579,113.15418 L 11.48954,114.18543 L 96.14579,114.18543 L 112.02079,147.81043 L 113.80204,147.87293 z" />
    <path
       id="path3639"
       style="fill:none;fill-rule:evenodd;stroke:#c0c0c0;stroke-width:1.75;stroke-linecap:butt;stroke-linejoin:miter;stroke-miterlimit:4;stroke-dasharray:none;stroke-opacity:1"
       d="M 114.15839,29.28826 L 97.44752,112.84263" />
    <path
       sodipodi:nodetypes="ccssssccsssccsssssssssccccccssssssssscccsssssccccsssssssscccssssssccssssssssscccscccccsssssccssssssccccccccccccccccccccccccccccssccssssssssssssscccssssssssssssssscccssssssssscccsssssssssscccssssssssssscccssssssssssscc"
       id="text3641"
       style="font-size:21.6072998px;font-style:normal;font-weight:normal;fill:#000000;fill-opacity:1;stroke:none;stroke-width:1px;stroke-linecap:butt;stroke-linejoin:miter;stroke-opacity:1;font-family:Bitstream Vera Sans"
       d="M 29.46267,8.54852 C 28.59048,9.73018 27.56357,11.18263 26.38193,12.90586 C 26.20608,14.24929 26.11816,15.19883 26.11817,15.75449 C 26.11816,16.21871 26.17091,16.55105 26.27643,16.75151 C 26.38192,16.95196 26.55776,17.05219 26.80395,17.05219 C 27.00088,17.05219 27.2242,16.96955 27.47391,16.80426 C 27.72359,16.63897 27.99263,16.384 28.28102,16.03935 L 28.89294,16.60907 C 28.30211,17.2421 27.78865,17.67643 27.35258,17.91206 C 26.91648,18.14768 26.46633,18.2655 26.00212,18.2655 C 25.06663,18.2655 24.5989,17.58323 24.59891,16.21871 C 24.5989,15.91626 24.62,15.58217 24.66221,15.21641 L 24.5567,15.21641 C 23.83223,16.2996 23.14645,17.07857 22.49936,17.55334 C 21.85226,18.02811 21.15945,18.2655 20.42092,18.2655 C 19.90747,18.2655 19.4749,18.11779 19.12322,17.82238 C 18.77153,17.52696 18.51129,17.13484 18.34248,16.646 C 18.17368,16.15716 18.08927,15.62437 18.08927,15.04761 C 18.08927,13.78859 18.32841,12.59463 18.8067,11.46573 C 19.28499,10.33683 19.94967,9.4506 20.80074,8.80701 C 21.65181,8.16344 22.60838,7.84165 23.67047,7.84164 C 24.45823,7.84165 25.07543,8.08783 25.52207,8.58017 C 25.9687,9.07254 26.21663,9.79349 26.26588,10.74302 L 26.36083,10.73247 L 27.74294,8.01045 L 29.56817,8.01045 L 29.46267,8.54852 z M 24.87322,12.97972 C 24.99278,12.24822 25.05257,11.60113 25.05258,11.03843 C 25.05257,10.2366 24.93475,9.64226 24.69914,9.2554 C 24.4635,8.86856 24.09599,8.67514 23.59661,8.67513 C 22.94951,8.67514 22.34814,8.96352 21.79248,9.54027 C 21.23682,10.11703 20.79194,10.89777 20.45785,11.88247 C 20.12375,12.86718 19.9567,13.87651 19.9567,14.91045 C 19.9567,15.62085 20.06221,16.14837 20.27322,16.49302 C 20.48422,16.83767 20.80074,17.00999 21.22276,17.00999 C 21.82765,17.00999 22.45012,16.65479 23.09019,15.94439 C 23.73024,15.234 24.32459,14.24577 24.87322,12.97972 L 24.87322,12.97972 z M 47.26129,10.26825 C 48.93529,10.85908 49.77229,11.95984 49.7723,13.57054 C 49.77229,14.40051 49.58766,15.17773 49.2184,15.90219 C 48.84913,16.62666 48.30754,17.20166 47.59363,17.62719 C 46.87971,18.05273 46.05853,18.2655 45.1301,18.2655 C 44.53223,18.2655 44.00647,18.21802 43.55281,18.12306 C 43.09913,18.02811 42.62964,17.86458 42.14432,17.63247 L 41.01542,22.63339 L 39.2957,22.63339 L 42.41863,8.68568 C 42.69997,7.4337 43.07979,6.39624 43.55808,5.57329 C 44.03636,4.75037 44.63422,4.11559 45.35166,3.66894 C 46.06908,3.22231 46.91312,2.999 47.88377,2.99898 C 48.96694,2.999 49.80394,3.2399 50.39478,3.72169 C 50.98559,4.20351 51.281,4.88753 51.28102,5.77375 C 51.281,6.13248 51.23001,6.52109 51.12803,6.93958 C 51.02604,7.35809 50.82382,7.76956 50.52138,8.17398 C 50.21893,8.57843 49.79867,8.95297 49.2606,9.29761 C 48.72252,9.64226 48.06312,9.93768 47.28239,10.18384 L 47.26129,10.26825 z M 45.49937,9.80403 C 46.25899,9.74777 46.94477,9.52972 47.5567,9.1499 C 48.16862,8.77009 48.64867,8.27246 48.99684,7.65701 C 49.345,7.04158 49.51908,6.36811 49.51909,5.6366 C 49.51908,5.05282 49.37313,4.60618 49.08125,4.29669 C 48.78934,3.98722 48.35501,3.83248 47.77826,3.83247 C 46.88498,3.83248 46.13942,4.26329 45.54157,5.1249 C 44.9437,5.98653 44.45486,7.29303 44.07505,9.04439 L 42.65074,15.65953 C 42.61557,15.82131 42.59799,15.95846 42.59799,16.071 C 42.59799,16.26091 42.64195,16.42268 42.72987,16.55632 C 42.81779,16.68996 42.94791,16.82184 43.12024,16.95196 C 43.29256,17.08209 43.51587,17.19463 43.79019,17.28958 C 44.0645,17.38453 44.41266,17.43201 44.83469,17.43201 C 45.4044,17.43201 45.92314,17.25617 46.39088,16.90449 C 46.85861,16.55281 47.22612,16.05342 47.4934,15.40632 C 47.76067,14.75923 47.89431,14.0207 47.89432,13.19073 C 47.89431,12.39593 47.67451,11.77345 47.23492,11.32329 C 46.79531,10.87315 46.16755,10.61642 45.35166,10.55311 L 45.49937,9.80403 z M 72.47689,8.51687 C 71.79462,9.33982 70.79584,10.69379 69.48056,12.5788 C 68.16526,14.46382 66.93789,16.33476 65.79845,18.19164 C 65.56633,19.65464 65.27092,21.03323 64.91221,22.32742 L 63.34019,22.32742 L 63.03423,21.83155 C 63.31557,20.72727 63.81848,19.51045 64.54294,18.18109 C 64.60624,16.85174 64.63789,15.49424 64.6379,14.10862 C 64.63789,12.934 64.61328,12.02315 64.56404,11.37605 C 64.51481,10.72896 64.44271,10.24188 64.34776,9.91481 C 64.2528,9.58775 64.14027,9.36268 64.01015,9.23958 C 63.88002,9.1165 63.72001,9.05495 63.5301,9.05495 C 63.13621,9.05495 62.68255,9.33982 62.16909,9.90953 L 61.57827,9.31871 C 61.91588,9.01627 62.17788,8.78768 62.36427,8.63293 C 62.55066,8.4782 62.74409,8.34104 62.94455,8.22146 C 63.14501,8.1019 63.3525,8.0087 63.56703,7.94187 C 63.78155,7.87506 64.02245,7.84165 64.28973,7.84164 C 64.97903,7.84165 65.48193,8.10541 65.79845,8.63293 C 66.11496,9.16046 66.27321,10.02911 66.27322,11.23889 C 66.27321,12.65969 66.20639,14.20006 66.07276,15.85999 L 66.16771,15.85999 C 67.87688,12.99027 69.29064,10.37376 70.409,8.01045 L 72.61405,8.01045 L 72.47689,8.51687 z M 79.11313,14.8155 L 79.11313,13.41228 L 84.45166,13.41228 L 85.71772,10.43706 L 79.11313,10.43706 L 79.11313,9.03384 L 86.31909,9.03384 L 87.7645,5.64715 L 89.04111,5.64715 L 87.5957,9.03384 L 92.11129,9.03384 L 92.11129,10.43706 L 86.99432,10.43706 L 85.72827,13.41228 L 92.11129,13.41228 L 92.11129,14.8155 L 85.12689,14.8155 L 83.54432,18.52926 L 82.26772,18.52926 L 83.85028,14.8155 L 79.11313,14.8155 z M 101.77551,17.68522 L 101.77551,17.16825 C 102.76022,17.16825 103.61305,16.95021 104.334,16.51412 C 105.05494,16.07804 105.63522,15.4327 106.07483,14.57811 C 106.51442,13.72353 106.80807,12.60342 106.95579,11.21779 L 106.85028,11.17559 C 106.25945,11.59761 105.67742,11.90709 105.10418,12.10403 C 104.53094,12.30098 103.91022,12.39945 103.24203,12.39944 C 102.44722,12.39945 101.77023,12.22536 101.21106,11.87719 C 100.65189,11.52903 100.23163,11.0402 99.95028,10.41068 C 99.66894,9.78118 99.52826,9.0444 99.52827,8.20036 C 99.52826,7.56734 99.63377,6.96772 99.84478,6.4015 C 100.05579,5.83531 100.36878,5.33944 100.78377,4.91389 C 101.19875,4.48837 101.71748,4.15075 102.33996,3.90105 C 102.96244,3.65137 103.68866,3.52652 104.51863,3.5265 C 105.99569,3.52652 107.12107,4.03646 107.89478,5.05632 C 108.66847,6.07621 109.05532,7.54272 109.05533,9.45586 C 109.05532,11.20725 108.77046,12.72475 108.20074,14.00839 C 107.63101,15.29203 106.83269,16.2908 105.80579,17.00472 C 104.77887,17.71863 103.57964,18.13889 102.20808,18.2655 L 101.77551,17.68522 z M 103.97001,11.29164 C 104.23728,11.29165 104.49225,11.26879 104.73492,11.22306 C 104.97757,11.17735 105.21496,11.11053 105.44707,11.02261 C 105.67918,10.93469 105.90601,10.82215 106.12758,10.68499 C 106.34913,10.54784 106.54783,10.40189 106.72368,10.24715 C 106.78697,10.19089 106.84324,10.11703 106.89249,10.02559 C 106.94171,9.93416 106.9804,9.81459 107.00854,9.66687 C 107.03667,9.51917 107.05073,9.28706 107.05074,8.97054 C 107.05073,8.00694 106.95402,7.18225 106.7606,6.49646 C 106.56717,5.81069 106.27176,5.29372 105.87437,4.94554 C 105.47696,4.59739 104.98636,4.42331 104.40258,4.42329 C 103.87505,4.42331 103.42841,4.51474 103.06267,4.69761 C 102.69692,4.88049 102.39974,5.13195 102.17116,5.45196 C 101.94256,5.77201 101.77551,6.14831 101.67001,6.58086 C 101.5645,7.01344 101.51175,7.48294 101.51175,7.98935 C 101.51175,9.03737 101.72627,9.84975 102.15533,10.4265 C 102.58438,11.00327 103.18927,11.29165 103.97001,11.29164 L 103.97001,11.29164 z M 116.3246,18.2655 C 114.80533,18.2655 113.67467,17.66764 112.93262,16.47192 C 112.19057,15.2762 111.81955,13.46152 111.81955,11.02788 C 111.81955,9.7337 111.93384,8.61535 112.16244,7.67284 C 112.39103,6.73034 112.71106,5.95136 113.12253,5.33591 C 113.534,4.72048 114.02811,4.26505 114.60487,3.96962 C 115.18162,3.67423 115.81113,3.52652 116.4934,3.5265 C 118.03376,3.52652 119.18024,4.12086 119.93285,5.30953 C 120.68544,6.49823 121.06174,8.29532 121.06175,10.70082 C 121.06174,13.19073 120.65907,15.07399 119.85372,16.35059 C 119.04836,17.62719 117.87199,18.2655 116.3246,18.2655 L 116.3246,18.2655 z M 113.87689,10.71137 C 113.87689,13.00434 114.08965,14.68714 114.51519,15.75976 C 114.94072,16.83239 115.60013,17.36871 116.4934,17.36871 C 117.34447,17.36871 117.97573,16.86404 118.38721,15.85472 C 118.79867,14.84539 119.0044,13.28217 119.00441,11.16504 C 119.0044,9.54731 118.8989,8.23729 118.6879,7.23499 C 118.47688,6.23271 118.18323,5.51352 117.80694,5.07742 C 117.43063,4.64135 116.9752,4.42331 116.44065,4.42329 C 115.95532,4.42331 115.54913,4.5675 115.22207,4.85586 C 114.895,5.14425 114.63124,5.55924 114.43079,6.10082 C 114.23033,6.64242 114.08789,7.30182 114.00349,8.07903 C 113.91909,8.85625 113.87689,9.7337 113.87689,10.71137 L 113.87689,10.71137 z M 126.41083,9.83568 C 125.7989,9.83569 125.25907,9.69853 124.79134,9.42421 C 124.3236,9.14991 123.96313,8.77185 123.70992,8.29004 C 123.4567,7.80824 123.3301,7.26489 123.3301,6.65999 C 123.3301,6.06214 123.4655,5.52231 123.73629,5.0405 C 124.00709,4.5587 124.38514,4.18592 124.87047,3.92215 C 125.35579,3.6584 125.90441,3.52652 126.51634,3.5265 C 127.12123,3.52652 127.66106,3.66016 128.13583,3.92742 C 128.6106,4.19471 128.97986,4.5675 129.24363,5.04577 C 129.50739,5.52407 129.63927,6.06566 129.63927,6.67054 C 129.63927,7.26841 129.50035,7.80824 129.22253,8.29004 C 128.9447,8.77185 128.5596,9.14991 128.06726,9.42421 C 127.5749,9.69853 127.02276,9.83569 126.41083,9.83568 L 126.41083,9.83568 z M 126.47414,4.571 C 126.08025,4.57101 125.72857,4.66069 125.41909,4.84004 C 125.10961,5.01941 124.87046,5.26734 124.70166,5.58384 C 124.53285,5.90037 124.44845,6.2626 124.44845,6.67054 C 124.44845,7.0785 124.53109,7.44249 124.69638,7.76251 C 124.86167,8.08255 125.10082,8.33225 125.41382,8.5116 C 125.72681,8.69096 126.08025,8.78064 126.47414,8.78063 C 126.87505,8.78064 127.23201,8.69096 127.54501,8.5116 C 127.858,8.33225 128.0989,8.08255 128.26771,7.76251 C 128.43652,7.44249 128.52092,7.0785 128.52093,6.67054 C 128.52092,6.2626 128.43652,5.90037 128.26771,5.58384 C 128.0989,5.26734 127.858,5.01941 127.54501,4.84004 C 127.23201,4.66069 126.87505,4.57101 126.47414,4.571 L 126.47414,4.571 z" />
    <path
       id="text3655"
       style="font-size:21.6072998px;font-style:normal;font-weight:normal;fill:#008000;fill-opacity:1;stroke:none;stroke-width:1px;stroke-linecap:butt;stroke-linejoin:miter;stroke-opacity:1;font-family:Bitstream Vera Sans"
       d="M 52.80718,128.38928 C 51.935,129.57094 50.90809,131.02339 49.72645,132.74662 C 49.5506,134.09005 49.46268,135.03959 49.46268,135.59524 C 49.46268,136.05947 49.51543,136.39181 49.62094,136.59226 C 49.72644,136.79272 49.90228,136.89295 50.14846,136.89295 C 50.3454,136.89295 50.56871,136.81031 50.81842,136.64501 C 51.0681,136.47973 51.33714,136.22476 51.62553,135.88011 L 52.23746,136.44983 C 51.64662,137.08286 51.13316,137.51719 50.69709,137.75281 C 50.26099,137.98844 49.81084,138.10625 49.34663,138.10625 C 48.41115,138.10625 47.94341,137.42399 47.94342,136.05946 C 47.94341,135.75702 47.96451,135.42292 48.00672,135.05717 L 47.90122,135.05717 C 47.17675,136.14035 46.49097,136.91933 45.84388,137.3941 C 45.19678,137.86887 44.50396,138.10625 43.76544,138.10625 C 43.25198,138.10625 42.81941,137.95855 42.46773,137.66313 C 42.11605,137.36772 41.8558,136.9756 41.687,136.48676 C 41.51819,135.99792 41.43378,135.46512 41.43379,134.88836 C 41.43378,133.62935 41.67293,132.43539 42.15122,131.30648 C 42.6295,130.17759 43.29418,129.29135 44.14525,128.64777 C 44.99632,128.0042 45.95289,127.68241 47.01498,127.6824 C 47.80274,127.68241 48.41994,127.92859 48.86658,128.42093 C 49.31321,128.9133 49.56115,129.63424 49.61039,130.58378 L 49.70535,130.57323 L 51.08746,127.85121 L 52.91268,127.85121 L 52.80718,128.38928 z M 48.21773,132.82047 C 48.33729,132.08898 48.39708,131.44189 48.39709,130.87919 C 48.39708,130.07736 48.27927,129.48302 48.04365,129.09616 C 47.80801,128.70932 47.44051,128.5159 46.94113,128.51589 C 46.29402,128.5159 45.69265,128.80427 45.137,129.38102 C 44.58133,129.95779 44.13646,130.73852 43.80236,131.72323 C 43.46826,132.70794 43.30121,133.71727 43.30122,134.75121 C 43.30121,135.46161 43.40672,135.98913 43.61773,136.33378 C 43.82874,136.67843 44.14525,136.85075 44.56727,136.85075 C 45.17216,136.85075 45.79464,136.49555 46.4347,135.78515 C 47.07476,135.07476 47.6691,134.08653 48.21773,132.82047 L 48.21773,132.82047 z" />
    <path
       id="text3659"
       style="font-size:21.6072998px;font-style:normal;font-weight:normal;fill:#008000;fill-opacity:1;stroke:none;stroke-width:1px;stroke-linecap:butt;stroke-linejoin:miter;stroke-opacity:1;font-family:Bitstream Vera Sans"
       d="M 112.42863,111.96579 C 114.10263,112.55662 114.93963,113.65738 114.93964,115.26808 C 114.93963,116.09805 114.755,116.87527 114.38574,117.59973 C 114.01647,118.3242 113.47488,118.8992 112.76097,119.32473 C 112.04705,119.75027 111.22587,119.96303 110.29744,119.96303 C 109.69957,119.96303 109.17381,119.91556 108.72014,119.8206 C 108.26647,119.72565 107.79698,119.56212 107.31166,119.33001 L 106.18276,124.33092 L 104.46303,124.33092 L 107.58597,110.38322 C 107.86731,109.13124 108.24713,108.09378 108.72542,107.27083 C 109.2037,106.44791 109.80156,105.81312 110.519,105.36647 C 111.23642,104.91985 112.08046,104.69654 113.05111,104.69652 C 114.13428,104.69654 114.97128,104.93744 115.56212,105.41923 C 116.15293,105.90104 116.44834,106.58507 116.44836,107.47129 C 116.44834,107.83002 116.39735,108.21863 116.29537,108.63712 C 116.19337,109.05563 115.99116,109.4671 115.68872,109.87152 C 115.38627,110.27596 114.96601,110.65051 114.42794,110.99514 C 113.88986,111.3398 113.23046,111.63521 112.44973,111.88138 L 112.42863,111.96579 z M 110.6667,111.50157 C 111.42633,111.44531 112.11211,111.22726 112.72404,110.84744 C 113.33596,110.46763 113.81601,109.97 114.16418,109.35455 C 114.51234,108.73912 114.68642,108.06565 114.68643,107.33413 C 114.68642,106.75036 114.54047,106.30372 114.24859,105.99423 C 113.95668,105.68476 113.52235,105.53002 112.9456,105.53001 C 112.05232,105.53002 111.30676,105.96083 110.70891,106.82244 C 110.11104,107.68407 109.6222,108.99057 109.24239,110.74193 L 107.81808,117.35707 C 107.78291,117.51885 107.76532,117.656 107.76533,117.76854 C 107.76532,117.95845 107.80928,118.12022 107.89721,118.25386 C 107.98513,118.3875 108.11525,118.51938 108.28758,118.6495 C 108.4599,118.77963 108.68321,118.89216 108.95753,118.98712 C 109.23184,119.08207 109.58,119.12955 110.00203,119.12955 C 110.57174,119.12955 111.09047,118.95371 111.55822,118.60203 C 112.02595,118.25034 112.39345,117.75096 112.66074,117.10386 C 112.92801,116.45677 113.06165,115.71824 113.06166,114.88826 C 113.06165,114.09347 112.84185,113.47099 112.40225,113.02083 C 111.96264,112.57069 111.33489,112.31396 110.519,112.25065 L 110.6667,111.50157 z" />
    <path
       id="text3663"
       style="font-size:21.6072998px;font-style:normal;font-weight:normal;fill:#008000;fill-opacity:1;stroke:none;stroke-width:1px;stroke-linecap:butt;stroke-linejoin:miter;stroke-opacity:1;font-family:Bitstream Vera Sans"
       d="M 63.32543,43.023394 C 62.64315,43.846334 61.64438,45.200314 60.3291,47.085314 C 59.0138,48.970334 57.78643,50.841284 56.64699,52.698164 C 56.41487,54.161154 56.11946,55.539754 55.76075,56.833944 L 54.18873,56.833944 L 53.88276,56.338074 C 54.16411,55.233784 54.66701,54.016964 55.39148,52.687614 C 55.45478,51.358254 55.48643,50.000764 55.48643,48.615134 C 55.48643,47.440524 55.46181,46.529664 55.41258,45.882564 C 55.36334,45.235474 55.29125,44.748404 55.1963,44.421324 C 55.10134,44.094274 54.9888,43.869194 54.85868,43.746094 C 54.72856,43.623014 54.56854,43.561474 54.37864,43.561464 C 53.98475,43.561474 53.53108,43.846334 53.01763,44.416054 L 52.4268,43.825224 C 52.76442,43.522784 53.02642,43.294194 53.21281,43.139444 C 53.3992,42.984714 53.59263,42.847564 53.79309,42.727974 C 53.99354,42.608414 54.20104,42.515224 54.41556,42.448394 C 54.63009,42.381584 54.87099,42.348174 55.13827,42.348164 C 55.82756,42.348174 56.33047,42.611934 56.64699,43.139444 C 56.96349,43.666974 57.12175,44.535634 57.12176,45.745414 C 57.12175,47.166214 57.05493,48.706574 56.9213,50.366514 L 57.01625,50.366514 C 58.72542,47.496794 60.13918,44.880284 61.25754,42.516974 L 63.46258,42.516974 L 63.32543,43.023394 z" />
    <path
       id="text3667"
       style="font-size:21.6072998px;font-style:normal;font-weight:normal;fill:#000000;fill-opacity:1;stroke:none;stroke-width:1px;stroke-linecap:butt;stroke-linejoin:miter;stroke-opacity:1;font-family:Bitstream Vera Sans"
       d="M 10.95383,126.17275 L 11.92447,125.47642 L 12.5997,125.64522 L 11.04878,132.33422 C 10.89403,133.00241 10.81666,133.5229 10.81667,133.89568 C 10.81666,134.17703 10.86238,134.38101 10.95383,134.50761 C 11.04525,134.63422 11.18944,134.69752 11.38639,134.69752 C 11.59739,134.69752 11.82247,134.61136 12.06162,134.43903 C 12.30076,134.26671 12.63837,133.93789 13.07447,133.45256 L 13.67584,134.04339 C 13.04281,134.71862 12.50297,135.19867 12.05635,135.48353 C 11.6097,135.76839 11.12614,135.91082 10.60566,135.91082 C 10.16957,135.91082 9.8214,135.76663 9.56116,135.47825 C 9.30091,135.18987 9.17079,134.80654 9.1708,134.32825 C 9.17079,133.9414 9.25168,133.52994 9.41346,133.09385 L 9.2763,133.05165 C 8.60107,134.03636 7.96101,134.75731 7.35612,135.21449 C 6.75122,135.67168 6.11116,135.90027 5.43594,135.90027 C 4.66223,135.90027 4.06262,135.60837 3.63708,135.02458 C 3.21155,134.44079 2.99878,133.62137 2.99878,132.56633 C 2.99878,131.35654 3.23616,130.19424 3.71094,129.0794 C 4.1857,127.96458 4.83807,127.08537 5.66805,126.44178 C 6.49801,125.79822 7.42293,125.47643 8.44282,125.47642 C 8.9,125.47643 9.32729,125.52742 9.7247,125.6294 C 10.12209,125.7314 10.5318,125.91251 10.95383,126.17275 L 10.95383,126.17275 z M 10.02539,129.31678 C 10.08868,129.02841 10.13088,128.77872 10.15199,128.5677 C 10.17308,128.3567 10.18363,128.12811 10.18364,127.88192 C 10.18363,127.34034 10.06758,126.94294 9.83548,126.68972 C 9.60336,126.43652 9.20948,126.30991 8.65383,126.3099 C 7.92935,126.30991 7.27874,126.60181 6.70199,127.18559 C 6.12523,127.76939 5.67508,128.55188 5.35153,129.53307 C 5.02798,130.51427 4.86621,131.4937 4.86621,132.47137 C 4.86621,133.20287 4.96644,133.74974 5.1669,134.11197 C 5.36735,134.4742 5.70321,134.65532 6.17447,134.65532 C 6.63868,134.65532 7.09411,134.45486 7.54075,134.05394 C 7.98738,133.65303 8.44808,133.08154 8.92286,132.33949 C 9.39763,131.59745 9.73348,130.7411 9.93043,129.77045 L 10.02539,129.31678 z" />
    <path
       id="text3671"
       style="font-size:21.6072998px;font-style:normal;font-weight:normal;fill:#000000;fill-opacity:1;stroke:none;stroke-width:1px;stroke-linecap:butt;stroke-linejoin:miter;stroke-opacity:1;font-family:Bitstream Vera Sans"
       d="M 72.07635,152.96367 L 73.04699,152.26734 L 73.72222,152.43615 L 72.1713,159.12514 C 72.01655,159.79334 71.93918,160.31382 71.93919,160.68661 C 71.93918,160.96795 71.9849,161.17193 72.07635,161.29853 C 72.16777,161.42514 72.31196,161.48844 72.50891,161.48844 C 72.71991,161.48844 72.94499,161.40228 73.18414,161.22995 C 73.42328,161.05763 73.76089,160.72881 74.19699,160.24349 L 74.79836,160.83431 C 74.16533,161.50954 73.62549,161.98959 73.17887,162.27445 C 72.73222,162.55931 72.24866,162.70174 71.72818,162.70174 C 71.29209,162.70174 70.94392,162.55755 70.68369,162.26917 C 70.42343,161.9808 70.29331,161.59746 70.29332,161.11917 C 70.29331,160.73233 70.3742,160.32086 70.53598,159.88477 L 70.39882,159.84257 C 69.72359,160.82728 69.08353,161.54823 68.47864,162.00541 C 67.87374,162.4626 67.23368,162.69119 66.55846,162.69119 C 65.78475,162.69119 65.18514,162.3993 64.7596,161.8155 C 64.33407,161.23171 64.1213,160.4123 64.1213,159.35725 C 64.1213,158.14747 64.35868,156.98516 64.83346,155.87032 C 65.30822,154.7555 65.96059,153.87629 66.79057,153.23271 C 67.62053,152.58914 68.54545,152.26735 69.56534,152.26734 C 70.02252,152.26735 70.44981,152.31834 70.84722,152.42032 C 71.24461,152.52232 71.65432,152.70343 72.07635,152.96367 L 72.07635,152.96367 z M 71.14791,156.10771 C 71.2112,155.81933 71.2534,155.56964 71.27451,155.35862 C 71.2956,155.14762 71.30615,154.91903 71.30616,154.67284 C 71.30615,154.13126 71.1901,153.73386 70.958,153.48064 C 70.72588,153.22744 70.332,153.10083 69.77635,153.10083 C 69.05187,153.10083 68.40126,153.39273 67.82451,153.97651 C 67.24775,154.56031 66.7976,155.3428 66.47405,156.32399 C 66.1505,157.30519 65.98873,158.28462 65.98873,159.26229 C 65.98873,159.99379 66.08896,160.54066 66.28942,160.90289 C 66.48987,161.26512 66.82573,161.44624 67.29699,161.44624 C 67.7612,161.44624 68.21663,161.24578 68.66327,160.84486 C 69.1099,160.44395 69.57061,159.87246 70.04538,159.13041 C 70.52015,158.38837 70.856,157.53202 71.05295,156.56138 L 71.14791,156.10771 z" />
    <path
       id="text3675"
       style="font-size:21.6072998px;font-style:normal;font-weight:normal;fill:#000000;fill-opacity:1;stroke:none;stroke-width:1px;stroke-linecap:butt;stroke-linejoin:miter;stroke-opacity:1;font-family:Bitstream Vera Sans"
       d="M 133.00833,102.34616 L 133.97897,101.64983 L 134.6542,101.81864 L 133.10328,108.50763 C 132.94853,109.17583 132.87117,109.69632 132.87117,110.0691 C 132.87117,110.35045 132.91688,110.55442 133.00833,110.68103 C 133.09976,110.80763 133.24395,110.87094 133.4409,110.87094 C 133.6519,110.87094 133.87697,110.78477 134.11613,110.61245 C 134.35526,110.44013 134.69288,110.1113 135.12897,109.62598 L 135.73035,110.21681 C 135.09731,110.89204 134.55748,111.37208 134.11085,111.65694 C 133.66421,111.94181 133.18064,112.08424 132.66016,112.08424 C 132.22407,112.08424 131.87591,111.94005 131.61567,111.65167 C 131.35542,111.36329 131.2253,110.97996 131.2253,110.50167 C 131.2253,110.11482 131.30618,109.70335 131.46796,109.26727 L 131.33081,109.22506 C 130.65557,110.20977 130.01551,110.93072 129.41062,111.38791 C 128.80573,111.84509 128.16567,112.07369 127.49044,112.07369 C 126.71674,112.07369 126.11712,111.78179 125.69159,111.198 C 125.26605,110.61421 125.05328,109.79479 125.05328,108.73974 C 125.05328,107.52996 125.29067,106.36765 125.76544,105.25282 C 126.24021,104.13799 126.89258,103.25879 127.72255,102.6152 C 128.55251,101.97163 129.47744,101.64984 130.49732,101.64983 C 130.9545,101.64984 131.38179,101.70084 131.7792,101.80282 C 132.17659,101.90481 132.5863,102.08593 133.00833,102.34616 L 133.00833,102.34616 z M 132.07989,105.4902 C 132.14318,105.20183 132.18539,104.95213 132.2065,104.74112 C 132.22759,104.53012 132.23814,104.30152 132.23815,104.05534 C 132.23814,103.51376 132.12208,103.11636 131.88998,102.86314 C 131.65786,102.60994 131.26398,102.48333 130.70833,102.48332 C 129.98386,102.48333 129.33325,102.77523 128.75649,103.35901 C 128.17973,103.94281 127.72958,104.7253 127.40604,105.70649 C 127.08249,106.68768 126.92071,107.66712 126.92072,108.64479 C 126.92071,109.37629 127.02094,109.92315 127.2214,110.28538 C 127.42186,110.64762 127.75771,110.82873 128.22897,110.82873 C 128.69319,110.82873 129.14862,110.62828 129.59526,110.22736 C 130.04189,109.82644 130.50259,109.25496 130.97737,108.51291 C 131.45213,107.77086 131.78799,106.91452 131.98494,105.94387 L 132.07989,105.4902 z" />
    <path
       sodipodi:nodetypes="cc"
       id="path3679"
       style="fill:none;fill-rule:evenodd;stroke:#008000;stroke-width:0.90500176px;stroke-linecap:butt;stroke-linejoin:miter;stroke-opacity:1"
       d="M 39.930572,56.005132 C 47.842882,55.021838 53.750254,56.380337 55.987012,65.105481" />
    <path
       id="path3681"
       style="fill:none;fill-rule:evenodd;stroke:#008000;stroke-width:1px;stroke-linecap:butt;stroke-linejoin:miter;stroke-opacity:1"
       d="M 29.6491,134.80549 C 35.856,135.12379 45.40507,142.36517 43.97271,148.65164" />
    <path
       id="path3683"
       style="fill:none;fill-rule:evenodd;stroke:#008000;stroke-width:1px;stroke-linecap:butt;stroke-linejoin:miter;stroke-opacity:1"
       d="M 105.56422,130.50841 C 107.07616,127.96199 112.88518,126.13175 115.82948,127.16623" />
    <path
       id="path3601"
       style="fill:none;fill-rule:evenodd;stroke:#000000;stroke-width:1.75;stroke-linecap:butt;stroke-linejoin:miter;stroke-miterlimit:4;stroke-dasharray:none;stroke-opacity:1"
       d="M 43.25653,65.81345 L 26.54566,149.36782" />
    <path
       id="path3623"
       style="fill:#000000;fill-rule:evenodd;stroke:none;stroke-width:0.7pt;marker-start:none;marker-end:none"
       d="M 10.7255,116.96382 C 8.80758,117.1966 7.06208,115.82895 6.82929,113.91103 C 6.59651,111.9931 7.96416,110.2476 9.88209,110.01482 C 11.80001,109.78204 13.54552,111.14969 13.7783,113.06761 C 14.01108,114.98554 12.64343,116.73104 10.7255,116.96382 z" />
    <path
       id="path3599"
       style="fill:#000000;fill-opacity:1;fill-rule:evenodd;stroke:none;stroke-width:1.75;stroke-linecap:butt;stroke-linejoin:miter;stroke-miterlimit:4;stroke-dasharray:none;stroke-opacity:1"
       d="M 26.16046,30.79087 L 9.44171,113.38462 L 9.41046,113.66587 L 9.53546,113.94712 L 25.75421,148.32212 L 26.00421,148.82212 L 26.53546,148.82212 L 112.47296,148.82212 L 113.19171,148.82212 L 113.34796,148.10337 L 130.06671,65.97837 L 128.34796,65.63462 L 111.75421,147.07212 L 27.09796,147.07212 L 11.22296,113.44712 L 27.87921,31.13462 L 26.16046,30.79087 z" />
    <path
       id="path3627"
       style="fill:#000000;fill-rule:evenodd;stroke:none;stroke-width:0.7pt;marker-start:none;marker-end:none"
       d="M 115.1435,145.76533 C 116.36587,147.26147 116.14366,149.4678 114.64751,150.69016 C 113.15137,151.91252 110.94504,151.69032 109.72268,150.19417 C 108.50032,148.69802 108.72252,146.4917 110.21867,145.26934 C 111.71482,144.04698 113.92114,144.26918 115.1435,145.76533 z" />
    <path
       id="path2430"
       style="fill:#000000;fill-opacity:1;fill-rule:evenodd;stroke:none;stroke-width:1.75;stroke-linecap:butt;stroke-linejoin:miter;stroke-miterlimit:4;stroke-dasharray:none;stroke-opacity:1"
       d="M 25.62921,30.57212 L 26.22296,31.82212 L 42.94171,66.19712 L 43.19171,66.69712 L 43.72296,66.69712 L 129.66046,66.69712 L 131.06671,66.69712 L 130.47296,65.44712 L 114.22296,31.07212 L 114.00421,30.57212 L 113.44171,30.57212 L 27.03546,30.57212 L 25.62921,30.57212 z M 28.44171,32.32212 L 112.91046,32.32212 L 128.28546,64.94712 L 44.31671,64.94712 L 28.44171,32.32212 z" />
    <path
       id="path3609"
       style="fill:#000000;fill-opacity:1;fill-rule:evenodd;stroke:none;stroke-width:0.7pt;marker-start:none;marker-end:none"
       d="M 116.3395,33.27271 C 115.30539,34.90465 113.14164,35.38985 111.50969,34.35574 C 109.87775,33.32163 109.39255,31.15788 110.42666,29.52593 C 111.46077,27.89399 113.62453,27.40879 115.25647,28.4429 C 116.88841,29.47701 117.37361,31.64077 116.3395,33.27271 z" />
    <path
       id="path3611"
       style="fill:#000000;fill-opacity:1;fill-rule:evenodd;stroke:none;stroke-width:0.7pt;marker-start:none;marker-end:none"
       d="M 127.83971,68.71074 C 126.20777,67.67663 125.72257,65.51288 126.75668,63.88093 C 127.79079,62.24899 129.95454,61.76379 131.58649,62.7979 C 133.21843,63.83201 133.70363,65.99577 132.66952,67.62771 C 131.63541,69.25965 129.47165,69.74485 127.83971,68.71074 z" />
    <path
       id="path3613"
       style="fill:#000000;fill-opacity:1;fill-rule:evenodd;stroke:none;stroke-width:0.7pt;marker-start:none;marker-end:none"
       d="M 40.82637,63.99392 C 41.85124,62.35616 44.01222,61.85875 45.64998,62.88363 C 47.28774,63.90851 47.78515,66.06949 46.76027,67.70725 C 45.73539,69.345 43.57441,69.84241 41.93666,68.81754 C 40.2989,67.79266 39.80149,65.63168 40.82637,63.99392 z" />
    <path
       id="path3615"
       style="fill:#000000;fill-opacity:1;fill-rule:evenodd;stroke:none;stroke-width:0.7pt;marker-start:none;marker-end:none"
       d="M 28.84264,28.52918 C 30.4804,29.55405 30.97781,31.71503 29.95293,33.35279 C 28.92805,34.99055 26.76707,35.48796 25.12931,34.46308 C 23.49156,33.4382 22.99415,31.27722 24.01902,29.63947 C 25.0439,28.00171 27.20488,27.5043 28.84264,28.52918 z" />
    <text
       id="text2437"
       y="17.10668"
       x="28.175709"
       style="font-size:14px;font-style:normal;font-weight:normal;fill:#000000;fill-opacity:1;stroke:none;stroke-width:1px;stroke-linecap:butt;stroke-linejoin:miter;stroke-opacity:1;font-family:Bitstream Vera Sans"
       xml:space="preserve"><tspan
         y="17.10668"
         x="28.175709"
         id="tspan2439"
         sodipodi:role="line">=</tspan></text>
    <text
       id="text2449"
       y="16.771255"
       x="50.313763"
       style="font-size:14px;font-style:normal;font-weight:normal;fill:#000000;fill-opacity:1;stroke:none;stroke-width:1px;stroke-linecap:butt;stroke-linejoin:miter;stroke-opacity:1;font-family:Bitstream Vera Sans"
       xml:space="preserve"><tspan
         y="16.771255"
         x="50.313763"
         id="tspan2451"
         sodipodi:role="line">=</tspan></text>
  </g>
</svg>
