<?xml version="1.0" encoding="UTF-8" standalone="no"?>
<!-- Created with Inkscape (http://www.inkscape.org/) -->
<svg
   xmlns:dc="http://purl.org/dc/elements/1.1/"
   xmlns:cc="http://creativecommons.org/ns#"
   xmlns:rdf="http://www.w3.org/1999/02/22-rdf-syntax-ns#"
   xmlns:svg="http://www.w3.org/2000/svg"
   xmlns="http://www.w3.org/2000/svg"
   xmlns:sodipodi="http://sodipodi.sourceforge.net/DTD/sodipodi-0.dtd"
   xmlns:inkscape="http://www.inkscape.org/namespaces/inkscape"
   version="1.0"
   width="128.84"
   height="154.48"
   id="svg2379"
   sodipodi:version="0.32"
   inkscape:version="0.46"
   sodipodi:docname="Triclinic.svg"
   inkscape:output_extension="org.inkscape.output.svg.inkscape">
  <metadata
     id="metadata28">
    <rdf:RDF>
      <cc:Work
         rdf:about="">
        <dc:format>image/svg+xml</dc:format>
        <dc:type
           rdf:resource="http://purl.org/dc/dcmitype/StillImage" />
      </cc:Work>
    </rdf:RDF>
  </metadata>
  <sodipodi:namedview
     inkscape:window-height="945"
     inkscape:window-width="1280"
     inkscape:pageshadow="2"
     inkscape:pageopacity="0.0"
     guidetolerance="10.0"
     gridtolerance="10.0"
     objecttolerance="10.0"
     borderopacity="1.0"
     bordercolor="#666666"
     pagecolor="#ffffff"
     id="base"
     showgrid="false"
     inkscape:zoom="2.9906785"
     inkscape:cx="50.885675"
     inkscape:cy="67.59549"
     inkscape:window-x="-4"
     inkscape:window-y="-4"
     inkscape:current-layer="svg2379" />
  <defs
     id="defs2381">
    <inkscape:perspective
       sodipodi:type="inkscape:persp3d"
       inkscape:vp_x="0 : 77.239998 : 1"
       inkscape:vp_y="0 : 1000 : 0"
       inkscape:vp_z="128.84 : 77.239998 : 1"
       inkscape:persp3d-origin="64.419998 : 51.493332 : 1"
       id="perspective30" />
    <marker
       refX="0"
       refY="0"
       orient="auto"
       style="overflow:visible"
       id="Dot_m">
      <path
         d="M -2.5,-1 C -2.5,1.76 -4.74,4 -7.5,4 C -10.26,4 -12.5,1.76 -12.5,-1 C -12.5,-3.76 -10.26,-6 -7.5,-6 C -4.74,-6 -2.5,-3.76 -2.5,-1 z "
         transform="matrix(0.4,0,0,0.4,2.96,0.4)"
         style="fill-rule:evenodd;stroke:#000000;stroke-width:1pt;marker-start:none;marker-end:none"
         id="path3527" />
    </marker>
  </defs>
  <path
     d="M 20.0184,8.5493553 C 19.14621,9.7310153 18.1193,11.183465 16.93766,12.906695 C 16.76181,14.250125 16.67389,15.199665 16.6739,15.755325 C 16.67389,16.219545 16.72664,16.551885 16.83216,16.752345 C 16.93765,16.952795 17.11349,17.053025 17.35968,17.053025 C 17.55661,17.053025 17.77993,16.970385 18.02964,16.805095 C 18.27932,16.639805 18.54836,16.384835 18.83675,16.040185 L 19.44867,16.609905 C 18.85784,17.242935 18.34438,17.677265 17.90831,17.912895 C 17.47221,18.148515 17.02206,18.266335 16.55785,18.266335 C 15.62236,18.266335 15.15463,17.584065 15.15464,16.219545 C 15.15463,15.917095 15.17573,15.583005 15.21794,15.217245 L 15.11243,15.217245 C 14.38796,16.300435 13.70218,17.079405 13.05509,17.554175 C 12.40799,18.028945 11.71518,18.266335 10.97665,18.266335 C 10.4632,18.266335 10.03063,18.118625 9.6789502,17.823215 C 9.3272602,17.527795 9.0670202,17.135675 8.8982102,16.646835 C 8.7294102,16.157995 8.6450002,15.625205 8.6450002,15.048445 C 8.6450002,13.789425 8.8841402,12.595465 9.3624302,11.466565 C 9.8407202,10.337665 10.5054,9.4514353 11.35647,8.8078453 C 12.20754,8.1642753 13.16411,7.8424853 14.2262,7.8424753 C 15.01396,7.8424853 15.63116,8.0886653 16.0778,8.5810053 C 16.52443,9.0733753 16.77236,9.7943253 16.82161,10.743855 L 16.91656,10.733305 L 18.29867,8.0112853 L 20.1239,8.0112853 L 20.0184,8.5493553 z M 15.42895,12.980555 C 15.54851,12.249055 15.6083,11.601965 15.60831,11.039265 C 15.6083,10.237435 15.49048,9.6430953 15.25487,9.2562353 C 15.01923,8.8693953 14.65172,8.6759753 14.15234,8.6759653 C 13.50524,8.6759753 12.90387,8.9643553 12.34821,9.5411053 C 11.79255,10.117865 11.34767,10.898605 11.01358,11.883305 C 10.67948,12.868015 10.51243,13.877345 10.51243,14.911285 C 10.51243,15.621685 10.61794,16.149205 10.82895,16.493855 C 11.03995,16.838505 11.35647,17.010825 11.77849,17.010825 C 12.38338,17.010825 13.00585,16.655625 13.64592,15.945225 C 14.28597,15.234835 14.88032,14.246605 15.42895,12.980555 L 15.42895,12.980555 z M 23.75326,15.649815 C 23.85173,16.142175 23.90096,16.627495 23.90097,17.105785 C 23.90096,17.598135 23.81656,18.048285 23.64775,18.456235 C 23.47894,18.864185 23.20991,19.270385 22.84064,19.674815 C 22.47138,20.079245 21.9632,20.524125 21.3161,21.009455 L 20.74638,20.365875 C 21.10509,20.028255 21.36534,19.724055 21.52711,19.453255 C 21.68889,19.182465 21.80494,18.874735 21.87528,18.530095 C 21.94561,18.185445 21.98078,17.752875 21.98078,17.232385 C 21.98078,16.697835 21.95616,16.170305 21.90693,15.649815 L 23.75326,15.649815 z M 37.81702,10.269085 C 39.49102,10.859915 40.32802,11.960675 40.32803,13.571375 C 40.32802,14.401345 40.14339,15.178565 39.77413,15.903025 C 39.40486,16.627495 38.86327,17.202495 38.14936,17.628025 C 37.43544,18.053565 36.61426,18.266335 35.68583,18.266335 C 35.08796,18.266335 34.5622,18.218855 34.10854,18.123895 C 33.65486,18.028945 33.18537,17.865415 32.70005,17.633305 L 31.57115,22.634225 L 29.85143,22.634225 L 32.97436,8.6865153 C 33.2557,7.4345353 33.63552,6.3970753 34.11381,5.5741253 C 34.59209,4.7512053 35.18995,4.1164253 35.90739,3.6697753 C 36.62481,3.2231453 37.46885,2.9998353 38.4395,2.9998153 C 39.52267,2.9998353 40.35967,3.2407353 40.95051,3.7225253 C 41.54132,4.2043453 41.83673,4.8883653 41.83675,5.7745853 C 41.83673,6.1333153 41.78574,6.5219253 41.68376,6.9404153 C 41.58177,7.3589253 41.37955,7.7703953 41.07711,8.1748153 C 40.77466,8.5792653 40.3544,8.9538053 39.81633,9.2984453 C 39.27825,9.6430953 38.61885,9.9385153 37.83812,10.184675 L 37.81702,10.269085 z M 36.0551,9.8048653 C 36.81472,9.7486053 37.5005,9.5305553 38.11243,9.1507353 C 38.72435,8.7709253 39.2044,8.2732953 39.55257,7.6578453 C 39.90073,7.0424153 40.07481,6.3689453 40.07482,5.6374353 C 40.07481,5.0536553 39.92886,4.6070153 39.63698,4.2975253 C 39.34507,3.9880553 38.91074,3.8333153 38.33399,3.8333053 C 37.44071,3.8333153 36.69515,4.2641253 36.0973,5.1257353 C 35.49943,5.9873653 35.01059,7.2938653 34.63078,9.0452253 L 33.20647,15.660365 C 33.1713,15.822145 33.15372,15.959295 33.15372,16.071835 C 33.15372,16.261745 33.19768,16.423515 33.2856,16.557155 C 33.37352,16.690795 33.50364,16.822675 33.67597,16.952795 C 33.84829,17.082925 34.0716,17.195465 34.34592,17.290415 C 34.62023,17.385365 34.96839,17.432845 35.39042,17.432845 C 35.96013,17.432845 36.47887,17.257005 36.94661,16.905325 C 37.41434,16.553645 37.78185,16.054255 38.04913,15.407155 C 38.3164,14.760065 38.45004,14.021535 38.45005,13.191565 C 38.45004,12.396765 38.23024,11.774285 37.79065,11.324125 C 37.35104,10.873985 36.72328,10.617255 35.90739,10.553945 L 36.0551,9.8048653 z M 46.03583,15.649815 C 46.1343,16.142175 46.18353,16.627495 46.18354,17.105785 C 46.18353,17.598135 46.09913,18.048285 45.93032,18.456235 C 45.76151,18.864185 45.49248,19.270385 45.12321,19.674815 C 44.75395,20.079245 44.24577,20.524125 43.59867,21.009455 L 43.02895,20.365875 C 43.38766,20.028255 43.64791,19.724055 43.80968,19.453255 C 43.97145,19.182465 44.08751,18.874735 44.15785,18.530095 C 44.22818,18.185445 44.26335,17.752875 44.26335,17.232385 C 44.26335,16.697835 44.23873,16.170305 44.1895,15.649815 L 46.03583,15.649815 z M 63.03262,8.5177053 C 62.35035,9.3406553 61.35157,10.694625 60.03629,12.579635 C 58.72099,14.464655 57.49362,16.335595 56.35418,18.192475 C 56.12206,19.655475 55.82665,21.034065 55.46794,22.328255 L 53.89592,22.328255 L 53.58996,21.832385 C 53.8713,20.728105 54.37421,19.511285 55.09867,18.181925 C 55.16197,16.852575 55.19362,15.495075 55.19363,14.109455 C 55.19362,12.934835 55.16901,12.023985 55.11977,11.376885 C 55.07054,10.729795 54.99844,10.242715 54.90349,9.9156453 C 54.80853,9.5885853 54.696,9.3635153 54.56588,9.2404153 C 54.43575,9.1173353 54.27574,9.0557853 54.08583,9.0557853 C 53.69194,9.0557853 53.23828,9.3406553 52.72482,9.9103653 L 52.134,9.3195453 C 52.47161,9.0171053 52.73361,8.7885153 52.92,8.6337653 C 53.10639,8.4790353 53.29982,8.3418753 53.50028,8.2222953 C 53.70074,8.1027353 53.90823,8.0095353 54.12276,7.9427053 C 54.33728,7.8758953 54.57818,7.8424853 54.84546,7.8424753 C 55.53476,7.8424853 56.03766,8.1062453 56.35418,8.6337653 C 56.67069,9.1612953 56.82894,10.029945 56.82895,11.239725 C 56.82894,12.660525 56.76212,14.200895 56.62849,15.860825 L 56.72344,15.860825 C 58.43261,12.991105 59.84637,10.374595 60.96473,8.0112853 L 63.16978,8.0112853 L 63.03262,8.5177053 z M 69.66886,14.816335 L 69.66886,13.413115 L 75.00739,13.413115 L 76.27345,10.437895 L 69.66886,10.437895 L 69.66886,9.0346753 L 76.87482,9.0346753 L 78.32023,5.6479853 L 79.59684,5.6479853 L 78.15143,9.0346753 L 82.66702,9.0346753 L 82.66702,10.437895 L 77.55005,10.437895 L 76.284,13.413115 L 82.66702,13.413115 L 82.66702,14.816335 L 75.68262,14.816335 L 74.10005,18.530095 L 72.82345,18.530095 L 74.40601,14.816335 L 69.66886,14.816335 z M 92.33124,17.686055 L 92.33124,17.169085 C 93.31595,17.169085 94.16878,16.951045 94.889726,16.514955 C 95.610666,16.078875 96.190946,15.433535 96.630556,14.578945 C 97.070146,13.724365 97.363796,12.604255 97.511516,11.218625 L 97.406006,11.176425 C 96.815176,11.598445 96.233146,11.907925 95.659906,12.104865 C 95.086666,12.301815 94.465946,12.400285 93.79776,12.400275 C 93.00295,12.400285 92.32596,12.226195 91.76679,11.878025 C 91.20762,11.529865 90.78736,11.041035 90.50601,10.411515 C 90.22467,9.7820153 90.08399,9.0452353 90.084,8.2011953 C 90.08399,7.5681753 90.1895,6.9685553 90.40051,6.4023353 C 90.61152,5.8361453 90.92451,5.3402753 91.3395,4.9147253 C 91.75448,4.4892053 92.27321,4.1515853 92.89569,3.9018853 C 93.51817,3.6522053 94.24439,3.5273553 95.074356,3.5273353 C 96.551416,3.5273553 97.676796,4.0372953 98.450506,5.0571553 C 99.224196,6.0770453 99.611046,7.5435553 99.611056,9.4566953 C 99.611046,11.208085 99.326186,12.725585 98.756466,14.009225 C 98.186736,15.292865 97.388416,16.291635 96.361516,17.005555 C 95.334596,17.719465 94.13537,18.139725 92.76381,18.266335 L 92.33124,17.686055 z M 94.525736,11.292475 C 94.793006,11.292485 95.047976,11.269625 95.290646,11.223895 C 95.533296,11.178185 95.770686,11.111365 96.002796,11.023445 C 96.234906,10.935525 96.461736,10.822985 96.683306,10.685825 C 96.904856,10.548675 97.103556,10.402725 97.279406,10.247985 C 97.342696,10.191725 97.398966,10.117865 97.448216,10.026425 C 97.497436,9.9349953 97.536126,9.8154253 97.564266,9.6677053 C 97.592396,9.5200053 97.606456,9.2878953 97.606466,8.9713753 C 97.606456,8.0077753 97.509746,7.1830853 97.316326,6.4972953 C 97.122896,5.8115253 96.827486,5.2945553 96.430096,4.9463753 C 96.032686,4.5982253 95.542086,4.4241453 94.958306,4.4241253 C 94.430776,4.4241453 93.98414,4.5155753 93.6184,4.6984453 C 93.25265,4.8813253 92.95547,5.1327853 92.72689,5.4527953 C 92.49829,5.7728453 92.33124,6.1491453 92.22574,6.5816953 C 92.12023,7.0142753 92.06748,7.4837753 92.06748,7.9901853 C 92.06748,9.0382053 92.282,9.8505853 92.71106,10.427335 C 93.14011,11.004105 93.745,11.292485 94.525736,11.292475 L 94.525736,11.292475 z M 106.88033,18.266335 C 105.36106,18.266335 104.2304,17.668475 103.48835,16.472755 C 102.7463,15.277035 102.37528,13.462355 102.37528,11.028715 C 102.37528,9.7345353 102.48957,8.6161853 102.71817,7.6736753 C 102.94676,6.7311753 103.26679,5.9521953 103.67826,5.3367453 C 104.08973,4.7213153 104.58384,4.2658853 105.1606,3.9704553 C 105.73735,3.6750653 106.36686,3.5273553 107.04913,3.5273353 C 108.58949,3.5273553 109.73597,4.1216953 110.48858,5.3103653 C 111.24117,6.4990653 111.61747,8.2961553 111.61748,10.701655 C 111.61747,13.191565 111.2148,15.074825 110.40945,16.351425 C 109.60409,17.628025 108.42772,18.266335 106.88033,18.266335 L 106.88033,18.266335 z M 104.43262,10.712205 C 104.43262,13.005175 104.64538,14.687975 105.07092,15.760595 C 105.49645,16.833225 106.15586,17.369545 107.04913,17.369545 C 107.9002,17.369545 108.53146,16.864875 108.94294,15.855555 C 109.3544,14.846225 109.56013,13.283005 109.56014,11.165875 C 109.56013,9.5481453 109.45463,8.2381253 109.24363,7.2358253 C 109.03261,6.2335453 108.73896,5.5143553 108.36267,5.0782553 C 107.98636,4.6421853 107.53093,4.4241453 106.99638,4.4241253 C 106.51105,4.4241453 106.10486,4.5683353 105.7778,4.8566953 C 105.45073,5.1450853 105.18697,5.5600753 104.98652,6.1016553 C 104.78606,6.6432553 104.64362,7.3026553 104.55922,8.0798653 C 104.47482,8.8570853 104.43262,9.7345353 104.43262,10.712205 L 104.43262,10.712205 z M 116.96656,9.8365153 C 116.35463,9.8365253 115.8148,9.6993653 115.34707,9.4250453 C 114.87933,9.1507453 114.51886,8.7726853 114.26565,8.2908753 C 114.01243,7.8090753 113.88583,7.2657253 113.88583,6.6608253 C 113.88583,6.0629753 114.02123,5.5231453 114.29202,5.0413353 C 114.56282,4.5595353 114.94087,4.1867553 115.4262,3.9229853 C 115.91152,3.6592353 116.46014,3.5273553 117.07207,3.5273353 C 117.67696,3.5273553 118.21679,3.6609953 118.69156,3.9282553 C 119.16633,4.1955453 119.53559,4.5683353 119.79936,5.0466053 C 120.06312,5.5249053 120.195,6.0664953 120.195,6.6713753 C 120.195,7.2692453 120.05608,7.8090753 119.77826,8.2908753 C 119.50043,8.7726853 119.11533,9.1507453 118.62299,9.4250453 C 118.13063,9.6993653 117.57849,9.8365253 116.96656,9.8365153 L 116.96656,9.8365153 z M 117.02987,4.5718353 C 116.63598,4.5718453 116.2843,4.6615253 115.97482,4.8408753 C 115.66534,5.0202453 115.42619,5.2681753 115.25739,5.5846753 C 115.08858,5.9012053 115.00418,6.2634353 115.00418,6.6713753 C 115.00418,7.0793353 115.08682,7.4433253 115.25211,7.7633453 C 115.4174,8.0833853 115.65655,8.3330853 115.96955,8.5124353 C 116.28254,8.6917953 116.63598,8.7814753 117.02987,8.7814653 C 117.43078,8.7814753 117.78774,8.6917953 118.10074,8.5124353 C 118.41373,8.3330853 118.65463,8.0833853 118.82344,7.7633453 C 118.99225,7.4433253 119.07665,7.0793353 119.07666,6.6713753 C 119.07665,6.2634353 118.99225,5.9012053 118.82344,5.5846753 C 118.65463,5.2681753 118.41373,5.0202453 118.10074,4.8408753 C 117.78774,4.6615253 117.43078,4.5718453 117.02987,4.5718353 L 117.02987,4.5718353 z "
     style="font-size:21.60733986px;font-style:normal;font-weight:normal;fill:#000000;fill-opacity:1;stroke:none;stroke-width:1px;stroke-linecap:butt;stroke-linejoin:miter;stroke-opacity:1;font-family:Bitstream Vera Sans"
     id="text3641" />
  <path
     id="path3625"
     style="fill:#000000;fill-rule:evenodd;stroke:none;stroke-width:0.7pt;marker-start:none;marker-end:none"
     d="M 30.887018,149.77222 C 29.852908,151.40416 27.689158,151.88936 26.057208,150.85525 C 24.425268,149.82114 23.940068,147.65739 24.974178,146.02544 C 26.008288,144.3935 28.172048,143.9083 29.803988,144.94241 C 31.435928,145.97652 31.921128,148.14028 30.887018,149.77222 z" />
  <path
     id="path3635"
     style="fill:#c0c0c0;fill-opacity:1;fill-rule:evenodd;stroke:none;stroke-width:0.7pt;marker-start:none;marker-end:none"
     d="M 87.298547,111.34523 C 88.520917,112.84137 88.298707,115.0477 86.802557,116.27006 C 85.306417,117.49242 83.100087,117.27022 81.877727,115.77407 C 80.655367,114.27792 80.877567,112.0716 82.373717,110.84924 C 83.869867,109.62688 86.076187,109.84908 87.298547,111.34523 z" />
  <path
     id="path3637"
     style="fill:#c0c0c0;fill-opacity:1;fill-rule:evenodd;stroke:none;stroke-width:1.75;stroke-linecap:butt;stroke-linejoin:miter;stroke-miterlimit:4;stroke-dasharray:none;stroke-opacity:1"
     d="M 101.18139,147.87377 L 101.21264,147.59252 L 101.08764,147.31127 L 84.868887,112.93627 L 84.618887,112.43627 L 84.087637,112.43627 L 12.214859,112.43627 L 11.496109,112.43627 L 11.339859,113.15502 L 12.933609,114.18627 L 83.525137,114.18627 L 99.400137,147.81127 L 101.18139,147.87377 z" />
  <path
     id="path3639"
     style="fill:none;fill-rule:evenodd;stroke:#c0c0c0;stroke-width:1.75;stroke-linecap:butt;stroke-linejoin:miter;stroke-miterlimit:4;stroke-dasharray:none;stroke-opacity:1"
     d="M 101.53774,29.289095 L 84.826867,112.84347" />
  <path
     id="text3655"
     style="font-size:21.60733986px;font-style:normal;font-weight:normal;fill:#008000;fill-opacity:1;stroke:none;stroke-width:1px;stroke-linecap:butt;stroke-linejoin:miter;stroke-opacity:1;font-family:Bitstream Vera Sans"
     d="M 54.251248,128.39012 C 53.379068,129.57178 52.352158,131.02423 51.170518,132.74746 C 50.994668,134.09089 50.906748,135.04043 50.906748,135.59608 C 50.906748,136.06031 50.959498,136.39265 51.065008,136.5931 C 51.170508,136.79356 51.346348,136.89379 51.592528,136.89379 C 51.789468,136.89379 52.012778,136.81115 52.262488,136.64585 C 52.512168,136.48057 52.781208,136.2256 53.069598,135.88095 L 53.681528,136.45067 C 53.090688,137.0837 52.577228,137.51803 52.141158,137.75365 C 51.705058,137.98928 51.254908,138.10709 50.790698,138.10709 C 49.855218,138.10709 49.387478,137.42483 49.387488,136.0603 C 49.387478,135.75786 49.408578,135.42376 49.450788,135.05801 L 49.345288,135.05801 C 48.620818,136.14119 47.935038,136.92017 47.287948,137.39494 C 46.640848,137.86971 45.948028,138.10709 45.209508,138.10709 C 44.696048,138.10709 44.263478,137.95939 43.911798,137.66397 C 43.560118,137.36856 43.299868,136.97644 43.131068,136.4876 C 42.962258,135.99876 42.877848,135.46596 42.877858,134.8892 C 42.877848,133.63019 43.116998,132.43623 43.595288,131.30732 C 44.073568,130.17843 44.738248,129.29219 45.589318,128.64861 C 46.440388,128.00504 47.396958,127.68325 48.459048,127.68324 C 49.246808,127.68325 49.864008,127.92943 50.310648,128.42177 C 50.757278,128.91414 51.005218,129.63508 51.054458,130.58462 L 51.149418,130.57407 L 52.531528,127.85205 L 54.356748,127.85205 L 54.251248,128.39012 z M 49.661798,132.82131 C 49.781358,132.08982 49.841148,131.44273 49.841158,130.88003 C 49.841148,130.0782 49.723338,129.48386 49.487718,129.097 C 49.252078,128.71016 48.884578,128.51674 48.385198,128.51673 C 47.738088,128.51674 47.136718,128.80511 46.581068,129.38186 C 46.025398,129.95863 45.580528,130.73936 45.246428,131.72407 C 44.912328,132.70878 44.745278,133.71811 44.745288,134.75205 C 44.745278,135.46245 44.850788,135.98997 45.061798,136.33462 C 45.272808,136.67927 45.589318,136.85159 46.011338,136.85159 C 46.616228,136.85159 47.238708,136.49639 47.878768,135.78599 C 48.518828,135.0756 49.113168,134.08737 49.661798,132.82131 L 49.661798,132.82131 z" />
  <path
     id="text3659"
     style="font-size:21.60733986px;font-style:normal;font-weight:normal;fill:#008000;fill-opacity:1;stroke:none;stroke-width:1px;stroke-linecap:butt;stroke-linejoin:miter;stroke-opacity:1;font-family:Bitstream Vera Sans"
     d="M 99.807978,111.96663 C 101.48198,112.55746 102.31898,113.65822 102.31899,115.26892 C 102.31898,116.09889 102.13435,116.87611 101.76509,117.60057 C 101.39582,118.32504 100.85423,118.90004 100.14032,119.32557 C 99.426398,119.75111 98.605218,119.96387 97.676788,119.96387 C 97.078918,119.96387 96.553158,119.9164 96.099488,119.82144 C 95.645818,119.72649 95.176328,119.56296 94.691008,119.33085 L 93.562108,124.33176 L 91.842378,124.33176 L 94.965318,110.38406 C 95.246658,109.13208 95.626478,108.09462 96.104768,107.27167 C 96.583048,106.44875 97.180908,105.81396 97.898348,105.36731 C 98.615768,104.92069 99.459808,104.69738 100.43046,104.69736 C 101.51363,104.69738 102.35063,104.93828 102.94147,105.42007 C 103.53228,105.90188 103.82769,106.58591 103.82771,107.47213 C 103.82769,107.83086 103.7767,108.21947 103.67472,108.63796 C 103.57272,109.05647 103.37051,109.46794 103.06807,109.87236 C 102.76562,110.2768 102.34536,110.65135 101.80729,110.99598 C 101.26921,111.34064 100.60981,111.63605 99.829078,111.88222 L 99.807978,111.96663 z M 98.046048,111.50241 C 98.805678,111.44615 99.491458,111.2281 100.10339,110.84828 C 100.71531,110.46847 101.19536,109.97084 101.54353,109.35539 C 101.89169,108.73996 102.06577,108.06649 102.06578,107.33497 C 102.06577,106.7512 101.91982,106.30456 101.62794,105.99507 C 101.33603,105.6856 100.9017,105.53086 100.32495,105.53085 C 99.431668,105.53086 98.686108,105.96167 98.088258,106.82328 C 97.490388,107.68491 97.001548,108.99141 96.621738,110.74277 L 95.197428,117.35791 C 95.162258,117.51969 95.144668,117.65684 95.144678,117.76938 C 95.144668,117.95929 95.188628,118.12106 95.276558,118.2547 C 95.364478,118.38834 95.494598,118.52022 95.666928,118.65034 C 95.839248,118.78047 96.062558,118.893 96.336878,118.98796 C 96.611188,119.08291 96.959348,119.13039 97.381378,119.13039 C 97.951088,119.13039 98.469818,118.95455 98.937568,118.60287 C 99.405298,118.25118 99.772798,117.7518 100.04009,117.1047 C 100.30736,116.45761 100.441,115.71908 100.44101,114.8891 C 100.441,114.09431 100.2212,113.47183 99.781598,113.02167 C 99.341988,112.57153 98.714238,112.3148 97.898348,112.25149 L 98.046048,111.50241 z" />
  <path
     id="text3663"
     style="font-size:21.60733986px;font-style:normal;font-weight:normal;fill:#008000;fill-opacity:1;stroke:none;stroke-width:1px;stroke-linecap:butt;stroke-linejoin:miter;stroke-opacity:1;font-family:Bitstream Vera Sans"
     d="M 67.417288,42.19988 C 66.735008,43.02282 65.736238,44.3768 64.420956,46.2618 C 63.105656,48.14682 61.878286,50.01777 60.738846,51.87465 C 60.506726,53.33764 60.211316,54.71624 59.852606,56.01043 L 58.280586,56.01043 L 57.974616,55.51456 C 58.255966,54.41027 58.758866,53.19345 59.483336,51.8641 C 59.546636,50.53474 59.578286,49.17725 59.578286,47.79162 C 59.578286,46.61701 59.553666,45.70615 59.504436,45.05905 C 59.455196,44.41196 59.383106,43.92489 59.288156,43.59781 C 59.193196,43.27076 59.080656,43.04568 58.950536,42.92258 C 58.820416,42.7995 58.660396,42.73796 58.470496,42.73795 C 58.076606,42.73796 57.622936,43.02282 57.109486,43.59254 L 56.518656,43.00171 C 56.856276,42.69927 57.118276,42.47068 57.304666,42.31593 C 57.491056,42.1612 57.684486,42.02405 57.884946,41.90446 C 58.085396,41.7849 58.292896,41.69171 58.507416,41.62488 C 58.721946,41.55807 58.962846,41.52466 59.230126,41.52465 C 59.919416,41.52466 60.422326,41.78842 60.738846,42.31593 C 61.055346,42.84346 61.213606,43.71212 61.213616,44.9219 C 61.213606,46.3427 61.146786,47.88306 61.013156,49.543 L 61.108106,49.543 C 62.817276,46.67328 64.231036,44.05677 65.349396,41.69346 L 67.554438,41.69346 L 67.417288,42.19988 z" />
  <path
     id="path3679"
     style="fill:none;fill-rule:evenodd;stroke:#008000;stroke-width:1px;stroke-linecap:butt;stroke-linejoin:miter;stroke-opacity:1"
     d="M 56.708034,64.811168 C 57.822096,59.638758 48.072922,50.59773 39.875089,53.376386"
     sodipodi:nodetypes="cc" />
  <path
     id="path3681"
     style="fill:none;fill-rule:evenodd;stroke:#008000;stroke-width:1px;stroke-linecap:butt;stroke-linejoin:miter;stroke-opacity:1"
     d="M 31.093168,134.80633 C 37.300068,135.12463 46.849138,142.36601 45.416778,148.65248" />
  <path
     id="path3683"
     style="fill:none;fill-rule:evenodd;stroke:#008000;stroke-width:1px;stroke-linecap:butt;stroke-linejoin:miter;stroke-opacity:1"
     d="M 92.943568,130.50925 C 94.455508,127.96283 100.26453,126.13259 103.20883,127.16707" />
  <path
     id="path3601"
     style="fill:none;fill-rule:evenodd;stroke:#000000;stroke-width:1.75;stroke-linecap:butt;stroke-linejoin:miter;stroke-miterlimit:4;stroke-dasharray:none;stroke-opacity:1"
     d="M 44.700598,65.814285 L 27.989728,149.36866" />
  <path
     id="path3623"
     style="fill:#000000;fill-rule:evenodd;stroke:none;stroke-width:0.7pt;marker-start:none;marker-end:none"
     d="M 12.169569,116.96466 C 10.251649,117.19744 8.5061487,115.82979 8.2733587,113.91187 C 8.0405787,111.99394 9.4082287,110.24844 11.326159,110.01566 C 13.244079,109.78288 14.989589,111.15053 15.222369,113.06845 C 15.455148,114.98638 14.087499,116.73188 12.169569,116.96466 z" />
  <path
     id="path3599"
     style="fill:#000000;fill-opacity:1;fill-rule:evenodd;stroke:none;stroke-width:1.75;stroke-linecap:butt;stroke-linejoin:miter;stroke-miterlimit:4;stroke-dasharray:none;stroke-opacity:1"
     d="M 27.604528,30.791705 L 10.885779,113.38546 L 10.854529,113.66671 L 10.979529,113.94796 L 27.198278,148.32296 L 27.448278,148.82296 L 27.979528,148.82296 L 99.852307,148.82296 L 100.57106,148.82296 L 100.72731,148.10421 L 117.44605,65.979205 L 115.7273,65.635455 L 99.133557,147.07296 L 28.542028,147.07296 L 12.667029,113.44796 L 29.323278,31.135455 L 27.604528,30.791705 z" />
  <path
     id="path3627"
     style="fill:#000000;fill-rule:evenodd;stroke:none;stroke-width:0.7pt;marker-start:none;marker-end:none"
     d="M 102.52285,145.76617 C 103.74522,147.26231 103.52301,149.46864 102.02686,150.691 C 100.53072,151.91336 98.324387,151.69116 97.102027,150.19501 C 95.879667,148.69886 96.101867,146.49254 97.598017,145.27018 C 99.094167,144.04782 101.30049,144.27002 102.52285,145.76617 z" />
  <path
     id="path2430"
     style="fill:#000000;fill-opacity:1;fill-rule:evenodd;stroke:none;stroke-width:1.75;stroke-linecap:butt;stroke-linejoin:miter;stroke-miterlimit:4;stroke-dasharray:none;stroke-opacity:1"
     d="M 27.073278,30.572955 L 27.667028,31.822955 L 44.385778,66.197955 L 44.635778,66.697955 L 45.167028,66.697955 L 117.0398,66.697955 L 118.44605,66.697955 L 117.8523,65.447955 L 101.60231,31.072955 L 101.38356,30.572955 L 100.82106,30.572955 L 28.479528,30.572955 L 27.073278,30.572955 z M 29.885778,32.322955 L 100.28981,32.322955 L 115.6648,64.947955 L 45.760778,64.947955 L 29.885778,32.322955 z" />
  <path
     id="path3609"
     style="fill:#000000;fill-opacity:1;fill-rule:evenodd;stroke:none;stroke-width:0.7pt;marker-start:none;marker-end:none"
     d="M 103.71885,33.273545 C 102.68474,34.905485 100.52099,35.390685 98.889037,34.356575 C 97.257097,33.322465 96.771897,31.158715 97.806007,29.526765 C 98.840117,27.894825 101.00388,27.409625 102.63582,28.443735 C 104.26776,29.477845 104.75296,31.641605 103.71885,33.273545 z" />
  <path
     id="path3611"
     style="fill:#000000;fill-opacity:1;fill-rule:evenodd;stroke:none;stroke-width:0.7pt;marker-start:none;marker-end:none"
     d="M 115.21905,68.711575 C 113.58711,67.677465 113.10191,65.513715 114.13602,63.881765 C 115.17013,62.249825 117.33388,61.764625 118.96583,62.798735 C 120.59777,63.832845 121.08297,65.996605 120.04886,67.628545 C 119.01475,69.260485 116.85099,69.745685 115.21905,68.711575 z" />
  <path
     id="path3613"
     style="fill:#000000;fill-opacity:1;fill-rule:evenodd;stroke:none;stroke-width:0.7pt;marker-start:none;marker-end:none"
     d="M 42.270438,63.994755 C 43.295308,62.356995 45.456288,61.859585 47.094048,62.884465 C 48.731808,63.909345 49.229218,66.070325 48.204338,67.708085 C 47.179458,69.345835 45.018478,69.843245 43.380728,68.818375 C 41.742968,67.793495 41.245558,65.632515 42.270438,63.994755 z" />
  <path
     id="path3615"
     style="fill:#000000;fill-opacity:1;fill-rule:evenodd;stroke:none;stroke-width:0.7pt;marker-start:none;marker-end:none"
     d="M 30.286708,28.530015 C 31.924468,29.554885 32.421878,31.715865 31.396998,33.353625 C 30.372118,34.991385 28.211138,35.488795 26.573378,34.463915 C 24.935628,33.439035 24.438218,31.278055 25.463088,29.640305 C 26.487968,28.002545 28.648948,27.505135 30.286708,28.530015 z" />
</svg>
